<svg width="85" height="85" viewBox="0 0 85 85" fill="none" xmlns="http://www.w3.org/2000/svg">
  <path
    d="M0 6.08813C0 2.72531 2.79437 0 6.24219 0H78.7578C82.2056 0 85 2.72531 85 6.08813V78.9119C85 82.2747 82.2056 85 78.7578 85H6.24219C2.79437 85 0 82.2747 0 78.9119V6.08813ZM26.2597 71.1556V32.7728H13.5044V71.1556H26.2597ZM19.8847 27.5294C24.3313 27.5294 27.0991 24.5863 27.0991 20.8994C27.0194 17.1328 24.3366 14.2694 19.9697 14.2694C15.6028 14.2694 12.75 17.1381 12.75 20.8994C12.75 24.5863 15.5178 27.5294 19.7997 27.5294H19.8847ZM45.9584 71.1556V49.7197C45.9584 48.5722 46.0434 47.4247 46.3834 46.6066C47.3025 44.3169 49.4009 41.9422 52.9284 41.9422C57.545 41.9422 59.3884 45.4591 59.3884 50.6228V71.1556H72.1437V49.1406C72.1437 37.3469 65.8538 31.8644 57.46 31.8644C50.6919 31.8644 47.6584 35.5831 45.9584 38.2022V38.335H45.8734C45.9017 38.2907 45.93 38.2464 45.9584 38.2022V32.7728H33.2084C33.3678 36.3747 33.2084 71.1556 33.2084 71.1556H45.9584Z"
    fill="black" />
</svg>