<svg width="105" height="85" viewBox="0 0 105 85" fill="none" xmlns="http://www.w3.org/2000/svg">
  <path
    d="M32.8606 85C72.3377 85 93.9331 52.2898 93.9331 23.9733C93.9331 23.0579 93.9331 22.1295 93.8938 21.2142C98.0982 18.1706 101.727 14.4024 104.61 10.0863C100.682 11.8179 96.5206 12.9592 92.2593 13.473C96.7479 10.79 100.11 6.56859 101.72 1.59329C97.5028 4.09166 92.8871 5.84551 88.0749 6.77802C84.8397 3.33259 80.5587 1.05009 75.895 0.284085C71.2312 -0.481922 66.445 0.31131 62.2777 2.54091C58.1105 4.77051 54.7947 8.31205 52.844 12.6169C50.8933 16.9218 50.4166 21.7499 51.4876 26.3531C42.9537 25.9252 34.605 23.7082 26.9831 19.846C19.3611 15.9838 12.6361 10.5626 7.24423 3.93394C4.50698 8.66154 3.67163 14.2537 4.90781 19.5748C6.14399 24.896 9.35901 29.5472 13.9 32.5839C10.4972 32.4683 7.16918 31.5546 4.18439 29.9164V30.2106C4.19026 35.1631 5.90592 39.9617 9.04139 43.7952C12.1768 47.6288 16.5398 50.2622 21.3927 51.2503C19.5507 51.7577 17.6479 52.0107 15.7372 52.0021C14.3903 52.0062 13.046 51.8814 11.7228 51.6295C13.0944 55.8927 15.7652 59.6201 19.361 62.2897C22.9568 64.9593 27.2975 66.4373 31.7752 66.5168C24.1685 72.4913 14.7722 75.7316 5.09973 75.7159C3.39538 75.7231 1.69221 75.6248 0 75.4217C9.81707 81.6804 21.2181 85.0036 32.8606 85Z"
    fill="black" />
</svg>