<svg width="48" height="49" viewBox="0 0 48 49" fill="none" xmlns="http://www.w3.org/2000/svg">
  <path fill-rule="evenodd" clip-rule="evenodd"
    d="M3 24.0234C3 29.593 5.21249 34.9344 9.15076 38.8727C13.089 42.8109 18.4305 45.0234 24 45.0234C29.5695 45.0234 34.911 42.8109 38.8492 38.8727C42.7875 34.9344 45 29.593 45 24.0234C45 18.4539 42.7875 13.1125 38.8492 9.17419C34.911 5.23593 29.5695 3.02344 24 3.02344C18.4305 3.02344 13.089 5.23593 9.15076 9.17419C5.21249 13.1125 3 18.4539 3 24.0234ZM48 24.0234C48 30.3886 45.4714 36.4931 40.9706 40.994C36.4697 45.4949 30.3652 48.0234 24 48.0234C17.6348 48.0234 11.5303 45.4949 7.02944 40.994C2.52856 36.4931 0 30.3886 0 24.0234C0 17.6582 2.52856 11.5537 7.02944 7.05288C11.5303 2.552 17.6348 0.0234375 24 0.0234375C30.3652 0.0234375 36.4697 2.552 40.9706 7.05288C45.4714 11.5537 48 17.6582 48 24.0234ZM34.5 22.5234C34.8978 22.5234 35.2794 22.6815 35.5607 22.9628C35.842 23.2441 36 23.6256 36 24.0234C36 24.4213 35.842 24.8028 35.5607 25.0841C35.2794 25.3654 34.8978 25.5234 34.5 25.5234H17.121L23.562 31.9614C23.7015 32.1009 23.8121 32.2665 23.8876 32.4487C23.963 32.6309 24.0019 32.8262 24.0019 33.0234C24.0019 33.2207 23.963 33.416 23.8876 33.5982C23.8121 33.7804 23.7015 33.946 23.562 34.0854C23.4225 34.2249 23.257 34.3355 23.0748 34.411C22.8925 34.4865 22.6972 34.5253 22.5 34.5253C22.3028 34.5253 22.1075 34.4865 21.9252 34.411C21.743 34.3355 21.5775 34.2249 21.438 34.0854L12.438 25.0854C12.2983 24.9461 12.1875 24.7806 12.1119 24.5983C12.0362 24.4161 11.9973 24.2207 11.9973 24.0234C11.9973 23.8261 12.0362 23.6308 12.1119 23.4485C12.1875 23.2663 12.2983 23.1008 12.438 22.9614L21.438 13.9614C21.7197 13.6798 22.1017 13.5215 22.5 13.5215C22.8983 13.5215 23.2803 13.6798 23.562 13.9614C23.8437 14.2431 24.0019 14.6251 24.0019 15.0234C24.0019 15.4218 23.8437 15.8038 23.562 16.0854L17.121 22.5234H34.5Z"
    fill="white" />
</svg>