<svg id="Layer_1" data-name="Layer 1" xmlns="http://www.w3.org/2000/svg" viewBox="0 0 512 512">
  <title>close</title>
  <path
    d="M152.27,291.39c-.88-1.07-1.68-2.09-2.42-3-3-3.8-4.86-6.6-5.29-8,0,0,.88,1,2.42,2.89l2.8,3.3,1.72,2.05.94,1.09.48.56.13.16.06.07,0,0h0c52.44-52.08,14.53-14.44,26.23-26.07l-.25-.3c-5.34-6.31-12.54-14.76-19.91-23.25-14.74-17-30.2-34.28-33-35.32,0,0,13.61,15.82,27.34,32.65,6.86,8.42,13.76,17.08,19,24.16,1.31,1.76,2.52,3.44,3.59,5l.1.13.05.08c-39.9,39.65-11.07,11-20,19.83v0l0,0-.19-.3-.39-.55-.73-1.07-1.3-2c-1.58-2.51-2.53-4.36-2.65-5.39l2.26,2.69,2.61,3.05,1.61,1.89.22.24,0,.05h0c-15.28,15.19,20.85-20.68,17.12-17l-.05-.05-.12-.15-.44-.5-.93-1.08c-5-5.84-11.82-13.62-18.93-21.45-14.21-15.61-29.64-31.28-34.49-31.53,0,0,12,14.3,24.17,30,6.1,7.84,12.25,16,17,22.91,2.36,3.43,4.39,6.56,5.87,9.17-4.06,2.15-3.14-3.37-3.94-3.67,0,0,.52.76,1.35,1.9.63.34,2.93,4.72.68,1.62-2.47-3.21-5.37-6.72-7-7.79l3.34,6.06-7.41-7.74-3.32-5.39s8.74,14.91,8,17.33c0,0,7.32,3.5-14.85-17.12,0,0-39.69-61.41-141.28-111.06,0,0-7.56,5.79,3.75-5.31l8.67-9.32,5.75-7.43,6.81-6.26s4.16.38,33.08,21.66a105.55,105.55,0,0,1,27.42,19.78s24.15,25,48.73,51.33c12.3,13.18,24.69,26.71,34.23,37.66,2.38,2.74,4.59,5.3,6.57,7.67l1.45,1.75.69.83.33.4.18.22.08.08,0,.06,0,0"
    fill="#FFFFFF" />
  <path
    d="M40.72,427.55s5.91,7.4-5.28-3.81L26.1,415.1l-7.38-5.81-6.34-6.74s.15-3.9,19.09-30.15A85.94,85.94,0,0,1,49,347.49s90.67-86.21,101.29-88.9c0,0-61.3,49.66-63,54.92,0,0,57.84-48.24,65.5-48.75,0,0-56.91,46-56.92,55.11,0,0,52.38-42.33,62.71-43.52,0,0-10.95,7.24-12.82,10.23l5.62-2.85-7,6.61-5,2.87s13.84-7.51,16.17-6.67c0,0,3-6.74-15.63,13.15C139.92,299.68,83.15,334.1,40.72,427.55Z"
    fill="#FFFFFF" />
  <path
    d="M11.54,433.55s-7.1,6.24,4.17-4.91l8.85-9.12,6.21-7,6.68-6.42s2.94-.82,18.43,7.13a27.48,27.48,0,0,1,14.79,7.22s44,47.58,43.5,55c0,0-23.15-34.25-26.76-34.27,0,0,22.91,32,21.45,37.63,0,0-21.43-31.81-28.39-29.63,0,0,19.72,29.29,18.13,36.79,0,0-2.88-6.51-4.71-7.2l.83,3.54-3.36-3.7-1-3.06s2.41,8.6,1.2,10.59c0,0,4.44.61-6.29-8.63C85.3,477.51,72.69,443,11.54,433.55Z"
    fill="#FFFFFF" />
  <path
    d="M129.18,494.81s5.93,7.41-5.28-3.82l-9.32-8.63-7.37-5.82-6.35-6.74s.13-3.86,18.64-29.71a83.06,83.06,0,0,1,17.18-24.51s89.08-84.65,99.59-87.21c0,0-60.29,48.66-61.94,53.87,0,0,56.9-47.31,64.49-47.73,0,0-56,45.09-55.92,54.11,0,0,51.54-41.47,61.75-42.56,0,0-10.77,7.09-12.61,10l5.54-2.78-6.9,6.5-4.94,2.79s13.65-7.33,16-6.48c0,0,2.88-6.65-15.38,12.91C226.34,369,170.39,402.58,129.18,494.81Z"
    fill="#FFFFFF" />
  <path
    d="M229.05,349.66s-7.6,5.75,3.71-5.37l8.65-9.32,5.71-7.46,6.82-6.26s4.24.49,34.33,22.91A114.38,114.38,0,0,1,316.77,365s101,104.24,104.83,115.85c0,0-58.92-69.76-64.79-72,0,0,57.11,66,58.28,74.24,0,0-54.61-64.78-64.5-65.52,0,0,50.25,59.62,52.35,70.78,0,0-8.75-12.31-12.13-14.58l3.55,6.27-7.74-8.08-3.55-5.6s9.31,15.45,8.58,17.91c0,0,7.58,3.73-15.57-17.83C376.06,466.41,334.08,402.71,229.05,349.66Z"
    fill="#FFFFFF" />
  <path
    d="M509.49,381.1s7.62-5.74-3.69,5.38l-8.63,9.33-5.69,7.49-6.83,6.26s-4.33-.56-35.2-23.78a121.24,121.24,0,0,1-29.25-21.61s-26-26.84-52.6-55.17c-13.28-14.17-26.68-28.71-37-40.43-2.59-2.94-5-5.71-7.13-8.23l-1.57-1.86-.38-.45-.1-.09v-.05c56.34-56,15.62-15.5,28.2-28l.05,0,.19.22.73.86.69.86.34.41.17.21.08.1,0,.05,0,0c-12.35,12.27,27.64-27.43-27.66,27.51L323,258.62c-3.23-4.06-5.3-7-5.81-8.52,0,0,1,1.13,2.63,3.09l3,3.55,1.87,2.17.25.3.13.15c-23.23,23.07,31.66-31.42,26-25.82l0,0,0,0-.06-.08-.52-.59-1.06-1.24-.55-.64-.13-.16c23.58-23.46-32.17,31.91-26.42,26.22l0,0,0,0,.07.07.28.32,1.15,1.36,2.43,2.81c1.67,2,3.44,4,5.28,6.11,3.68,4.27,7.62,8.79,11.61,13.35,16,18.24,32.7,36.77,35.7,38,0,0-14.75-17-29.67-35-7.46-9-15-18.29-20.67-25.82l-2.06-2.74-1-1.31-.11-.16-.06-.08c-18.17,18,24.73-24.58,20.31-20.18l0,0,0,0,.23.3.45.64.85,1.19.41.59.09.14.05.07,0,0c4.23-4.19-36.79,36.56-19.43,19.29l0,0-.21-.29-1.42-2.12c-1.74-2.67-2.81-4.64-3-5.68l2.44,2.87c.78.91,1.74,2,2.83,3.28l.42.48.1.13.07.06,0,0v0c33.74-33.5,9.34-9.3,16.86-16.78l-.21-.25-.9-1-1-1.11-.25-.28-.06-.07v0c3.74-3.73-32.7,32.48-17.27,17.16l0,0,.11.14.51.58c5.45,6.26,12.81,14.62,20.5,23,15.37,16.78,32,33.64,37,34.12,0,0-13-15.35-26.27-32.1-6.63-8.36-13.34-17.1-18.55-24.44-1.3-1.84-2.5-3.58-3.58-5.23l-1.53-2.35-.69-1.12-.05-.07,0,0c4.44-4.41,1.24-1.2,2.23-2.19h0l.08.13.16.28.32.52,1.12,2c-1.17,2.45-.86-.34-1.3-.19a13,13,0,0,1-1-2.7s.56.8,1.48,2l.73,1,.2.28c-1.38,1.42-.5.24-.87.46l-.43-.56c-.34-.45-1.82-2.39-1.35-1.73,2.71,3.44,5.84,7.21,7.58,8.36l-3.71-6.4,8,8.31,3.67,5.74s-9.68-15.83-9-18.31c0,0-7.75-3.91,16.08,18.36C358.41,260.32,402,325.63,509.49,381.1Z"
    fill="#FFFFFF" />
  <path
    d="M272.31,166.45s5.95,7.38-5.26-3.84L257.73,154l-7.36-5.83L244,141.4s.08-3.84,18.19-29.28A80.44,80.44,0,0,1,279,88S366.53,4.9,376.91,2.46c0,0-59.3,47.67-60.89,52.82,0,0,55.94-46.38,63.47-46.73,0,0-55.07,44.17-54.91,53.13,0,0,50.68-40.67,60.79-41.64,0,0-10.6,6.93-12.4,9.82l5.46-2.71-6.77,6.36-4.86,2.74s13.46-7.14,15.78-6.27c0,0,2.8-6.58-15.13,12.64C367.43,42.64,312.3,75.43,272.31,166.45Z"
    fill="#FFFFFF" />
  <path
    d="M95.93,41.56s-7.46,5.89,3.83-5.23l8.7-9.27,5.84-7.33,6.79-6.3s3.92.16,30.35,19A86.54,86.54,0,0,1,176.5,49.82s86.79,90.07,89.5,100.62c0,0-50-60.89-55.28-62.58,0,0,48.56,57.46,49.07,65.08,0,0-46.3-56.54-55.47-56.54,0,0,42.62,52,43.79,62.28,0,0-7.29-10.87-10.28-12.73l2.88,5.59-6.65-7-2.9-5s7.57,13.74,6.72,16.06c0,0,6.8,3-13.25-15.53C224.62,140.12,190,83.71,95.93,41.56Z"
    fill="#FFFFFF" />
  <path
    d="M348.2,272.06s5.8,7.53-5.39-3.7l-9.37-8.58-7.49-5.7-6.3-6.77s.45-4.2,22.6-33.67a111,111,0,0,1,20.61-27.92S466.2,86.9,477.77,83.26c0,0-69.24,57.56-71.45,63.32,0,0,65.44-55.78,73.69-56.86,0,0-64.28,53.31-64.94,63.09,0,0,59.17-49.08,70.29-51.09,0,0-12.23,8.54-14.46,11.85l6.22-3.45-8,7.58-5.56,3.44s15.37-9,17.82-8.3c0,0,3.68-7.45-17.7,15.2C463.68,128,400.38,168.93,348.2,272.06Z"
    fill="#FFFFFF" />
  <path
    d="M373.38,27.56s-7.18,6.17,4.1-5l8.83-9.16,6.11-7L399.13,0s3.16-.61,21.11,9.79a37.58,37.58,0,0,1,17.11,9.52S491,76.49,491.23,84.57c0,0-29.21-40.25-33.2-40.65,0,0,28.7,37.73,27.67,43.83,0,0-27-37.39-34.49-35.7,0,0,24.89,34.43,23.93,42.55,0,0-3.89-7.49-6-8.45l1.3,4-4.11-4.45-1.42-3.5S468.5,92,467.38,94c0,0,5,1.14-7.85-10.19C459.53,83.85,442,44.4,373.38,27.56Z"
    fill="#FFFFFF" />
  <path
    d="M29.7,143.7s6.13,7.2-5.09-4L15.36,131l-7.18-6-6.4-6.69s-.39-3.35,12.46-23.56A48.7,48.7,0,0,1,26.1,75.47S93,12.87,101.84,12c0,0-46.38,34.84-47.16,39.17,0,0,43.59-34.1,50.16-33.5,0,0-43.09,32.26-41.87,40.16,0,0,39.66-29.71,48.43-29.35,0,0-8.5,4.8-9.72,7.16l4.48-1.74L101,38.64,97,40.47s11-4.67,13.11-3.64c0,0,1.68-5.44-11.76,9.33C98.37,46.16,53.85,68.42,29.7,143.7Z"
    fill="#FFFFFF" />
  <path
    d="M413.69,509.72s6.13,7.2-5.09-4L399.37,497l-7.15-6-6.4-6.68s-.43-3.32,12-23.11A46.61,46.61,0,0,1,409.3,442.3s65.31-61,74-61.83c0,0-45.38,33.85-46.11,38.11,0,0,42.65-33.13,49.14-32.48,0,0-42.17,31.36-40.86,39.17,0,0,38.81-28.86,47.48-28.4,0,0-8.34,4.65-9.53,6.93l4.41-1.65-5.07,4.68-3.88,1.74s10.78-4.47,12.91-3.43c0,0,1.58-5.35-11.51,9.07C480.32,414.22,436.62,435.65,413.69,509.72Z"
    fill="#FFFFFF" />
</svg>