<svg width="22" height="24" viewBox="0 0 22 24" fill="none" xmlns="http://www.w3.org/2000/svg">
  <path
    d="M12.0994 10.2471C9.9091 8.64692 6.21838 9.07435 4.40363 11.5583C4.18867 11.8526 3.4801 12.8225 3.30273 13.0652C1.47869 15.562 1.96683 19.0229 4.39301 20.7954C6.48368 22.3228 9.33128 22.0981 11.246 20.4092C11.5533 20.1382 11.8365 19.8294 12.0887 19.4841"
    stroke="black" stroke-width="3" stroke-linecap="round" stroke-linejoin="round" />
  <path
    d="M9.53365 13.7563C11.7239 15.3565 15.4146 14.9291 17.2294 12.445C17.4444 12.1508 18.1529 11.1809 18.3303 10.9382C20.1544 8.44142 19.6662 4.98055 17.24 3.20803C15.1493 1.68063 12.3018 1.9053 10.3871 3.59421C10.0797 3.86529 9.79648 4.17404 9.54423 4.51932"
    stroke="black" stroke-width="3" stroke-linecap="round" stroke-linejoin="round" />
</svg>