<svg width="75" height="75" viewBox="0 0 75 75" fill="none" xmlns="http://www.w3.org/2000/svg">
  <path
    d="M25.8876 58.2391C26.5439 57.8547 27.2611 57.4797 28.0392 57.1234C27.3819 58.1035 26.6779 59.0514 25.9298 59.9641C24.6173 61.5437 23.5955 62.3828 22.9533 62.6453C22.9 62.6678 22.8451 62.6866 22.7892 62.7016C22.7424 62.6366 22.7016 62.5676 22.6673 62.4953C22.4048 61.9797 22.4142 61.4828 22.8548 60.8078C23.3517 60.0344 24.3501 59.1484 25.8876 58.2391ZM37.3955 50.5188C36.8376 50.6359 36.2845 50.7531 35.7267 50.8844C36.5529 49.2655 37.3345 47.6243 38.0705 45.9625C38.8114 47.3356 39.609 48.6774 40.4611 49.9844C39.4439 50.1344 38.4173 50.3125 37.3955 50.5188ZM49.2314 54.9203C48.5033 54.3331 47.8216 53.6905 47.1923 52.9984C48.2611 53.0219 49.2267 53.1016 50.0611 53.2516C51.547 53.5187 52.2455 53.9406 52.4892 54.2313C52.566 54.3124 52.6095 54.4195 52.6111 54.5313C52.5947 54.8619 52.4981 55.1836 52.3298 55.4688C52.2353 55.6971 52.0836 55.8973 51.8892 56.05C51.7925 56.1094 51.6784 56.1341 51.5658 56.1203C51.1439 56.1063 50.3564 55.8109 49.2314 54.9203ZM38.8017 32.6734C38.6142 33.8172 38.2955 35.1297 37.8642 36.5594C37.7053 36.024 37.5662 35.4831 37.447 34.9375C37.0908 33.2828 37.0392 31.9844 37.2314 31.0844C37.4095 30.2547 37.747 29.9219 38.1501 29.7578C38.3664 29.6625 38.5953 29.5993 38.8298 29.5703C38.8908 29.7109 38.9611 30.0016 38.9798 30.4984C39.0033 31.0703 38.947 31.7969 38.8017 32.6781V32.6734Z"
    fill="white" />
  <path fill-rule="evenodd" clip-rule="evenodd"
    d="M18.75 0H43.5609C44.804 0.000265488 45.9961 0.4943 46.875 1.37344L64.2516 18.75C65.1307 19.6289 65.6247 20.821 65.625 22.0641V65.625C65.625 68.1114 64.6373 70.496 62.8791 72.2541C61.121 74.0123 58.7364 75 56.25 75H18.75C16.2636 75 13.879 74.0123 12.1209 72.2541C10.3627 70.496 9.375 68.1114 9.375 65.625V9.375C9.375 6.8886 10.3627 4.50403 12.1209 2.74587C13.879 0.987721 16.2636 0 18.75 0ZM44.5312 7.03125V16.4062C44.5312 17.6495 45.0251 18.8417 45.9042 19.7208C46.7833 20.5999 47.9755 21.0938 49.2188 21.0938H58.5938L44.5312 7.03125ZM19.5234 64.0688C19.9453 64.9125 20.6016 65.6766 21.5766 66.0328C22.5469 66.3844 23.5078 66.2203 24.2953 65.8922C25.7859 65.2828 27.2719 63.8484 28.6359 62.2078C30.1969 60.3281 31.8375 57.8625 33.4219 55.1297C36.4806 54.2231 39.6129 53.5863 42.7828 53.2266C44.1891 55.0219 45.6422 56.5688 47.0484 57.6797C48.3609 58.7109 49.875 59.5688 51.4266 59.6344C52.2717 59.6762 53.1085 59.4498 53.8172 58.9875C54.5437 58.5141 55.0828 57.8297 55.4766 57.0375C55.8984 56.1891 56.1562 55.3031 56.1234 54.3984C56.0937 53.5065 55.7634 52.6508 55.1859 51.9703C54.1266 50.7047 52.3922 50.0953 50.6859 49.7906C48.6161 49.47 46.5161 49.3914 44.4281 49.5562C42.665 47.0637 41.1276 44.4188 39.8344 41.6531C41.0063 38.5594 41.8828 35.6344 42.2719 33.2438C42.4406 32.2219 42.5297 31.2469 42.4969 30.3656C42.491 29.4909 42.2875 28.6288 41.9016 27.8438C41.6792 27.4105 41.3632 27.0322 40.9764 26.7363C40.5897 26.4403 40.1419 26.2342 39.6656 26.1328C38.7187 25.9312 37.7438 26.1328 36.8484 26.4937C35.0813 27.1969 34.1484 28.6969 33.7969 30.3516C33.4547 31.9453 33.6094 33.8016 34.0125 35.6766C34.425 37.5797 35.1281 39.6516 36.0281 41.7469C34.5885 45.3272 32.9259 48.8137 31.05 52.1859C28.6343 52.946 26.3057 53.9595 24.1031 55.2094C22.3688 56.2406 20.8266 57.4594 19.8984 58.8984C18.9141 60.4266 18.6094 62.2453 19.5234 64.0688Z"
    fill="white" />
</svg>