<svg width="123" height="54" viewBox="0 0 123 54" fill="none" xmlns="http://www.w3.org/2000/svg">
  <path
    d="M20.7344 36.8984C20.7344 37.1016 20.6328 37.2708 20.4297 37.4062C20.2266 37.5417 19.9811 37.6517 19.6934 37.7363C19.4225 37.821 19.1432 37.8802 18.8555 37.9141C18.5846 37.9479 18.3815 37.9648 18.2461 37.9648C17.9076 37.9648 17.6283 37.931 17.4082 37.8633C17.2051 37.8125 16.9596 37.7109 16.6719 37.5586C16.5872 37.5078 16.3841 37.2962 16.0625 36.9238C15.7578 36.5345 15.3685 36.0352 14.8945 35.4258C14.4375 34.8164 13.9128 34.1224 13.3203 33.3438C12.7448 32.5651 12.1439 31.7695 11.5176 30.957C10.9082 30.1276 10.2988 29.3066 9.68945 28.4941C9.09701 27.6647 8.54688 26.9115 8.03906 26.2344C7.53125 25.5404 7.09115 24.9395 6.71875 24.4316C6.36328 23.9069 6.10938 23.543 5.95703 23.3398L5.80469 23.3906C5.90625 25.4049 6.0332 27.4193 6.18555 29.4336C6.35482 31.431 6.63411 33.4115 7.02344 35.375C7.07422 35.5781 7.125 35.7897 7.17578 36.0098C7.24349 36.2298 7.27734 36.4583 7.27734 36.6953C7.27734 37.0846 7.15039 37.3301 6.89648 37.4316C6.64258 37.5501 6.36328 37.6094 6.05859 37.6094C5.88932 37.6094 5.6862 37.6009 5.44922 37.584C5.21224 37.5671 4.9668 37.5332 4.71289 37.4824C4.45898 37.4316 4.22201 37.3639 4.00195 37.2793C3.79883 37.2116 3.63802 37.1185 3.51953 37C3.28255 36.7969 3.13021 36.5853 3.0625 36.3652C3.01172 36.1452 2.96094 35.8828 2.91016 35.5781C2.41927 32.1758 2.10612 28.765 1.9707 25.3457C1.85221 21.9095 1.79297 18.4818 1.79297 15.0625C1.79297 13.5729 1.80143 12.1087 1.81836 10.6699C1.83529 9.23112 1.86068 7.76693 1.89453 6.27734C1.69141 6.26042 1.49674 6.19271 1.31055 6.07422C1.14128 5.95573 0.988932 5.81185 0.853516 5.64258C0.718099 5.45638 0.608073 5.27018 0.523438 5.08398C0.455729 4.88086 0.421875 4.6862 0.421875 4.5C0.421875 4.3138 0.464193 4.1276 0.548828 3.94141C0.650391 3.75521 0.76888 3.58594 0.904297 3.43359C1.05664 3.28125 1.21745 3.13737 1.38672 3.00195C1.55599 2.86654 1.70833 2.75651 1.84375 2.67188V2.21484C1.84375 2.04557 1.84375 1.85091 1.84375 1.63086C1.86068 1.41081 1.89453 1.20768 1.94531 1.02148C2.01302 0.818359 2.11458 0.657552 2.25 0.539062C2.38542 0.403646 2.58854 0.335938 2.85938 0.335938C3.21484 0.335938 3.57031 0.395182 3.92578 0.513672C4.28125 0.632161 4.58594 0.84375 4.83984 1.14844C6.10938 0.640625 7.44661 0.386719 8.85156 0.386719C10.0872 0.386719 11.2129 0.632161 12.2285 1.12305C13.2441 1.61393 14.1074 2.27409 14.8184 3.10352C15.5462 3.93294 16.1048 4.88932 16.4941 5.97266C16.8835 7.05599 17.0781 8.1901 17.0781 9.375C17.0781 10.6445 16.8411 11.8802 16.3672 13.082C15.8932 14.2669 15.2754 15.3926 14.5137 16.459C13.752 17.5254 12.8802 18.5072 11.8984 19.4043C10.9336 20.2845 9.95182 21.0547 8.95312 21.7148C10.5443 23.8307 12.1523 25.9297 13.7773 28.0117C15.4193 30.0768 17.0951 32.1419 18.8047 34.207C18.9062 34.3255 19.0586 34.5033 19.2617 34.7402C19.4818 34.9772 19.7018 35.2396 19.9219 35.5273C20.1419 35.7982 20.3281 36.0605 20.4805 36.3145C20.6497 36.5684 20.7344 36.763 20.7344 36.8984ZM13.3203 8.96875C13.3203 8.34245 13.2103 7.69076 12.9902 7.01367C12.7702 6.33659 12.457 5.72721 12.0508 5.18555C11.6445 4.62695 11.1536 4.16992 10.5781 3.81445C10.0195 3.45898 9.39323 3.28125 8.69922 3.28125C8.14062 3.28125 7.58203 3.36589 7.02344 3.53516C6.48177 3.6875 5.95703 3.89062 5.44922 4.14453C5.48307 6.66667 5.50846 9.1888 5.52539 11.7109C5.55924 14.2331 5.60156 16.7552 5.65234 19.2773L6.10938 19.3281C6.98958 18.8372 7.85286 18.2194 8.69922 17.4746C9.5625 16.7298 10.3327 15.9004 11.0098 14.9863C11.7038 14.0723 12.2624 13.1074 12.6855 12.0918C13.1087 11.0592 13.3203 10.0182 13.3203 8.96875ZM29.3672 32.3535C29.3672 32.8613 29.2233 33.3861 28.9355 33.9277C28.6647 34.4694 28.3092 34.9688 27.8691 35.4258C27.429 35.8659 26.9212 36.2298 26.3457 36.5176C25.7871 36.8053 25.2285 36.9492 24.6699 36.9492C23.8743 36.9492 23.1888 36.7969 22.6133 36.4922C22.0378 36.1706 21.5384 35.7474 21.1152 35.2227C20.6921 34.681 20.3451 34.0716 20.0742 33.3945C19.8203 32.7174 19.6172 32.0234 19.4648 31.3125C19.3125 30.5846 19.2025 29.8652 19.1348 29.1543C19.084 28.4264 19.0586 27.7663 19.0586 27.1738C19.0586 26.666 19.084 26.0651 19.1348 25.3711C19.2025 24.6771 19.304 23.9577 19.4395 23.2129C19.5918 22.4681 19.7949 21.7318 20.0488 21.0039C20.3027 20.276 20.6159 19.6243 20.9883 19.0488C21.3776 18.4733 21.8346 18.0078 22.3594 17.6523C22.901 17.2969 23.5189 17.1191 24.2129 17.1191C24.7546 17.1191 25.237 17.2292 25.6602 17.4492C26.1003 17.6693 26.4642 17.9655 26.752 18.3379C27.0566 18.6934 27.2852 19.1081 27.4375 19.582C27.6068 20.056 27.6914 20.5469 27.6914 21.0547C27.6914 21.7148 27.5391 22.4342 27.2344 23.2129C26.9297 23.9915 26.5319 24.7448 26.041 25.4727C25.5671 26.2005 25.0254 26.8607 24.416 27.4531C23.8236 28.0286 23.2311 28.4688 22.6387 28.7734C22.6725 29.0781 22.7402 29.5267 22.8418 30.1191C22.9434 30.6947 23.0788 31.2702 23.248 31.8457C23.4342 32.4212 23.6458 32.9206 23.8828 33.3438C24.1367 33.7669 24.4329 33.9785 24.7715 33.9785C24.9408 33.9785 25.0846 33.9277 25.2031 33.8262C25.3385 33.7246 25.457 33.5892 25.5586 33.4199C25.6602 33.2507 25.7448 33.0645 25.8125 32.8613C25.8971 32.6582 25.9733 32.4635 26.041 32.2773L26.1934 31.9219C26.2272 31.8711 26.2441 31.8372 26.2441 31.8203C26.2611 31.8034 26.278 31.778 26.2949 31.7441C26.4134 31.5241 26.5234 31.321 26.625 31.1348C26.7435 30.9486 26.9043 30.7878 27.1074 30.6523H27.082C27.1497 30.5846 27.2174 30.5508 27.2852 30.5508C27.3698 30.5339 27.446 30.5254 27.5137 30.5254C27.6999 30.5254 27.903 30.5846 28.123 30.7031C28.3431 30.8216 28.5462 30.974 28.7324 31.1602C28.9186 31.3294 29.071 31.5241 29.1895 31.7441C29.3079 31.9473 29.3672 32.1504 29.3672 32.3535ZM24.3398 21.1562C24.3398 20.987 24.3314 20.8092 24.3145 20.623C24.2975 20.4368 24.2552 20.276 24.1875 20.1406C23.9505 20.4284 23.7389 20.7754 23.5527 21.1816C23.3835 21.571 23.2396 21.9857 23.1211 22.4258C23.0026 22.849 22.901 23.2806 22.8164 23.7207C22.7487 24.1608 22.6979 24.5671 22.6641 24.9395C23.1042 24.4147 23.4935 23.8223 23.832 23.1621C24.1706 22.485 24.3398 21.8164 24.3398 21.1562ZM40.4375 38.7266C40.4375 39.4206 40.4121 40.1484 40.3613 40.9102C40.3105 41.6719 40.2259 42.4336 40.1074 43.1953C39.9889 43.974 39.8281 44.7357 39.625 45.4805C39.4219 46.2253 39.168 46.9193 38.8633 47.5625C38.3555 48.5104 37.7122 49.3398 36.9336 50.0508C36.1719 50.7786 35.334 51.388 34.4199 51.8789C33.5059 52.3698 32.5326 52.7422 31.5 52.9961C30.4674 53.25 29.4264 53.377 28.377 53.377C28.2246 53.377 28.0469 53.3685 27.8438 53.3516C27.6237 53.3346 27.4121 53.2923 27.209 53.2246C27.0059 53.1738 26.8366 53.0807 26.7012 52.9453C26.5658 52.8099 26.498 52.6237 26.498 52.3867C26.498 52.2852 26.5234 52.1836 26.5742 52.082C26.5742 52.0482 26.5827 52.0143 26.5996 51.9805C26.5996 51.9635 26.5996 51.9466 26.5996 51.9297C26.7181 51.5911 26.8535 51.3203 27.0059 51.1172C27.1582 50.9141 27.3359 50.7533 27.5391 50.6348C27.7253 50.5332 27.9538 50.457 28.2246 50.4062C28.4785 50.3724 28.7747 50.3385 29.1133 50.3047C30.1966 50.2539 31.2207 50 32.1855 49.543V49.5684C33.2858 49.0267 34.1491 48.3496 34.7754 47.5371C35.4186 46.7415 35.901 45.8529 36.2227 44.8711C36.5612 43.9062 36.7728 42.8822 36.8574 41.7988C36.9421 40.7155 36.9844 39.6237 36.9844 38.5234C36.9844 38.2695 36.9844 38.0833 36.9844 37.9648C36.9844 37.8464 36.9844 37.7363 36.9844 37.6348C36.9844 37.5501 36.9844 37.4486 36.9844 37.3301C36.9844 37.2116 36.9759 37.0254 36.959 36.7715C36.3665 37.2285 35.7487 37.457 35.1055 37.457C34.3607 37.457 33.7259 37.2539 33.2012 36.8477C32.6934 36.4245 32.2617 35.8828 31.9062 35.2227C31.5677 34.5456 31.2969 33.7839 31.0938 32.9375C30.9076 32.0742 30.7637 31.2025 30.6621 30.3223C30.5775 29.4251 30.5182 28.5534 30.4844 27.707C30.4674 26.8607 30.459 26.1074 30.459 25.4473V24.3809C30.459 23.4837 30.459 22.6035 30.459 21.7402C30.4759 20.877 30.5098 20.0137 30.5605 19.1504V18.7695C30.5605 18.5664 30.5605 18.3633 30.5605 18.1602C30.5605 17.957 30.5775 17.7624 30.6113 17.5762C30.679 17.3053 30.7721 17.1107 30.8906 16.9922C31.026 16.8737 31.2376 16.8145 31.5254 16.8145C31.6608 16.8145 31.7878 16.8229 31.9062 16.8398C32.0417 16.8568 32.1771 16.8822 32.3125 16.916C32.6341 17.0514 32.888 17.1953 33.0742 17.3477C33.2604 17.4831 33.3958 17.6523 33.4805 17.8555C33.582 18.0417 33.6413 18.2617 33.6582 18.5156C33.6921 18.7695 33.709 19.0658 33.709 19.4043V22.8066C33.709 23.2129 33.709 23.7207 33.709 24.3301C33.7259 24.9225 33.7513 25.5742 33.7852 26.2852C33.819 26.9961 33.8613 27.7324 33.9121 28.4941C33.9629 29.2559 34.0391 29.9922 34.1406 30.7031C34.2422 31.4141 34.3607 32.0658 34.4961 32.6582C34.6315 33.2507 34.8008 33.7415 35.0039 34.1309C35.3086 33.4707 35.571 32.7005 35.791 31.8203C36.0111 30.9232 36.1888 29.9668 36.3242 28.9512C36.4766 27.9186 36.5866 26.8607 36.6543 25.7773C36.7389 24.694 36.7982 23.6361 36.832 22.6035C36.8828 21.571 36.9082 20.5977 36.9082 19.6836C36.9251 18.7526 36.9336 17.9401 36.9336 17.2461C36.9336 17.0768 36.9336 16.8991 36.9336 16.7129C36.9505 16.5098 36.9928 16.332 37.0605 16.1797C37.1283 16.0104 37.2214 15.875 37.3398 15.7734C37.4753 15.6719 37.6699 15.6211 37.9238 15.6211C38.0423 15.6211 38.1693 15.638 38.3047 15.6719C38.457 15.7057 38.584 15.7396 38.6855 15.7734C38.7194 15.7734 38.7533 15.7819 38.7871 15.7988C38.8379 15.7988 38.8802 15.7988 38.9141 15.7988C39.151 15.8835 39.3796 15.9681 39.5996 16.0527C39.8197 16.1374 40.0059 16.2474 40.1582 16.3828C40.3275 16.5013 40.4544 16.6621 40.5391 16.8652C40.6406 17.0684 40.6914 17.3307 40.6914 17.6523C40.6914 18.0417 40.6829 18.4902 40.666 18.998C40.666 19.4889 40.6491 20.0052 40.6152 20.5469C40.5983 21.0885 40.5729 21.6217 40.5391 22.1465C40.5052 22.6543 40.4714 23.1113 40.4375 23.5176L40.3359 24.4062C40.3021 24.6432 40.2767 24.8802 40.2598 25.1172C40.2428 25.3542 40.2344 25.5742 40.2344 25.7773C40.2344 26.8607 40.2428 27.944 40.2598 29.0273C40.2767 30.0938 40.3021 31.1686 40.3359 32.252C40.3698 33.3353 40.3952 34.4186 40.4121 35.502C40.429 36.5684 40.4375 37.6432 40.4375 38.7266ZM47.293 36.873C47.293 37.2624 47.1745 37.5163 46.9375 37.6348C46.7174 37.7533 46.4466 37.8125 46.125 37.8125C45.8372 37.8125 45.5495 37.7871 45.2617 37.7363C44.9909 37.7025 44.7285 37.6263 44.4746 37.5078C44.2376 37.3893 44.026 37.2285 43.8398 37.0254C43.6706 36.8223 43.5521 36.5599 43.4844 36.2383C43.2474 35.2227 43.112 34.2324 43.0781 33.2676C43.0443 32.2858 43.0273 31.2786 43.0273 30.2461V27.123C43.0273 25.7012 43.0866 24.2285 43.2051 22.7051C43.3236 21.1647 43.4505 19.6836 43.5859 18.2617C43.5859 18.2109 43.5944 18.1517 43.6113 18.084C43.6283 18.0163 43.6367 17.9655 43.6367 17.9316C43.6536 17.7454 43.679 17.5423 43.7129 17.3223C43.7467 17.1022 43.7975 16.9076 43.8652 16.7383C43.9499 16.5521 44.0599 16.3997 44.1953 16.2812C44.3477 16.1628 44.5423 16.1035 44.7793 16.1035C45.0501 16.1035 45.304 16.1628 45.541 16.2812C45.7949 16.3828 46.015 16.5267 46.2012 16.7129C46.3874 16.8822 46.5312 17.0938 46.6328 17.3477C46.7513 17.6016 46.8105 17.8639 46.8105 18.1348C46.8105 18.4225 46.8021 18.7441 46.7852 19.0996C46.7682 19.4382 46.7428 19.7598 46.709 20.0645C46.709 20.1491 46.7005 20.2422 46.6836 20.3438C46.6836 20.4453 46.6751 20.5384 46.6582 20.623C46.8952 20.1491 47.166 19.6582 47.4707 19.1504C47.7754 18.6257 48.1224 18.1517 48.5117 17.7285C48.918 17.2884 49.3581 16.9329 49.832 16.6621C50.3229 16.3913 50.8646 16.2559 51.457 16.2559C51.9479 16.2559 52.3542 16.332 52.6758 16.4844C52.9974 16.6367 53.2513 16.8568 53.4375 17.1445C53.6406 17.4154 53.776 17.737 53.8438 18.1094C53.9284 18.4818 53.9707 18.8796 53.9707 19.3027C53.9707 19.8783 53.9538 20.4622 53.9199 21.0547C53.8861 21.6302 53.8522 22.2057 53.8184 22.7812C53.7676 23.3737 53.7253 23.9577 53.6914 24.5332C53.6576 25.1087 53.6406 25.6927 53.6406 26.2852C53.6406 26.9961 53.6576 27.7324 53.6914 28.4941C53.7253 29.2389 53.776 29.9583 53.8438 30.6523C53.9115 31.3294 53.9876 31.9473 54.0723 32.5059C54.1569 33.0475 54.2415 33.4707 54.3262 33.7754C54.3939 34.0293 54.4616 34.3255 54.5293 34.6641C54.6139 34.9857 54.6901 35.3242 54.7578 35.6797C54.8424 36.0182 54.9102 36.3483 54.9609 36.6699C55.0117 36.9915 55.0371 37.2793 55.0371 37.5332C55.0371 37.9056 54.8848 38.1426 54.5801 38.2441C54.2923 38.3457 54.0046 38.3965 53.7168 38.3965C53.429 38.3965 53.099 38.3711 52.7266 38.3203C52.3711 38.2865 52.0495 38.1934 51.7617 38.041C51.4062 37.7871 51.1693 37.4316 51.0508 36.9746C50.9492 36.5176 50.8815 36.069 50.8477 35.6289L50.7715 34.9434C50.7207 34.5371 50.653 34.0039 50.5684 33.3438C50.4837 32.6836 50.3991 31.9557 50.3145 31.1602C50.2467 30.3646 50.1875 29.5436 50.1367 28.6973C50.0859 27.834 50.0605 26.9961 50.0605 26.1836C50.0605 25.4557 50.0859 24.7533 50.1367 24.0762C50.2044 23.3991 50.2721 22.7135 50.3398 22.0195C50.3737 21.6641 50.3991 21.3763 50.416 21.1562C50.4329 20.9362 50.4583 20.6484 50.4922 20.293C50.1536 20.8346 49.8151 21.4694 49.4766 22.1973C49.138 22.9251 48.8164 23.6868 48.5117 24.4824C48.207 25.2611 47.9277 26.0228 47.6738 26.7676C47.4368 27.5124 47.2507 28.1641 47.1152 28.7227L46.9629 29.2812C46.8783 29.5521 46.8021 29.8229 46.7344 30.0938C46.6836 30.3646 46.6582 30.6185 46.6582 30.8555C46.6582 31.1602 46.6751 31.5156 46.709 31.9219C46.7428 32.3112 46.7852 32.6836 46.8359 33.0391C46.8867 33.4622 46.946 33.8939 47.0137 34.334C47.0137 34.3678 47.0306 34.4779 47.0645 34.6641C47.0983 34.8503 47.1322 35.0703 47.166 35.3242C47.1999 35.5781 47.2253 35.849 47.2422 36.1367C47.276 36.4076 47.293 36.653 47.293 36.873ZM66.793 32.3535C66.793 32.8613 66.6491 33.3861 66.3613 33.9277C66.0905 34.4694 65.735 34.9688 65.2949 35.4258C64.8548 35.8659 64.347 36.2298 63.7715 36.5176C63.2129 36.8053 62.6543 36.9492 62.0957 36.9492C61.3001 36.9492 60.6146 36.7969 60.0391 36.4922C59.4635 36.1706 58.9642 35.7474 58.541 35.2227C58.1178 34.681 57.7708 34.0716 57.5 33.3945C57.2461 32.7174 57.043 32.0234 56.8906 31.3125C56.7383 30.5846 56.6283 29.8652 56.5605 29.1543C56.5098 28.4264 56.4844 27.7663 56.4844 27.1738C56.4844 26.666 56.5098 26.0651 56.5605 25.3711C56.6283 24.6771 56.7298 23.9577 56.8652 23.2129C57.0176 22.4681 57.2207 21.7318 57.4746 21.0039C57.7285 20.276 58.0417 19.6243 58.4141 19.0488C58.8034 18.4733 59.2604 18.0078 59.7852 17.6523C60.3268 17.2969 60.9447 17.1191 61.6387 17.1191C62.1803 17.1191 62.6628 17.2292 63.0859 17.4492C63.526 17.6693 63.89 17.9655 64.1777 18.3379C64.4824 18.6934 64.7109 19.1081 64.8633 19.582C65.0326 20.056 65.1172 20.5469 65.1172 21.0547C65.1172 21.7148 64.9648 22.4342 64.6602 23.2129C64.3555 23.9915 63.9577 24.7448 63.4668 25.4727C62.9928 26.2005 62.4512 26.8607 61.8418 27.4531C61.2493 28.0286 60.6569 28.4688 60.0645 28.7734C60.0983 29.0781 60.166 29.5267 60.2676 30.1191C60.3691 30.6947 60.5046 31.2702 60.6738 31.8457C60.86 32.4212 61.0716 32.9206 61.3086 33.3438C61.5625 33.7669 61.8587 33.9785 62.1973 33.9785C62.3665 33.9785 62.5104 33.9277 62.6289 33.8262C62.7643 33.7246 62.8828 33.5892 62.9844 33.4199C63.0859 33.2507 63.1706 33.0645 63.2383 32.8613C63.3229 32.6582 63.3991 32.4635 63.4668 32.2773L63.6191 31.9219C63.653 31.8711 63.6699 31.8372 63.6699 31.8203C63.6868 31.8034 63.7038 31.778 63.7207 31.7441C63.8392 31.5241 63.9492 31.321 64.0508 31.1348C64.1693 30.9486 64.3301 30.7878 64.5332 30.6523H64.5078C64.5755 30.5846 64.6432 30.5508 64.7109 30.5508C64.7956 30.5339 64.8717 30.5254 64.9395 30.5254C65.1257 30.5254 65.3288 30.5846 65.5488 30.7031C65.7689 30.8216 65.972 30.974 66.1582 31.1602C66.3444 31.3294 66.4967 31.5241 66.6152 31.7441C66.7337 31.9473 66.793 32.1504 66.793 32.3535ZM61.7656 21.1562C61.7656 20.987 61.7572 20.8092 61.7402 20.623C61.7233 20.4368 61.681 20.276 61.6133 20.1406C61.3763 20.4284 61.1647 20.7754 60.9785 21.1816C60.8092 21.571 60.6654 21.9857 60.5469 22.4258C60.4284 22.849 60.3268 23.2806 60.2422 23.7207C60.1745 24.1608 60.1237 24.5671 60.0898 24.9395C60.5299 24.4147 60.9193 23.8223 61.2578 23.1621C61.5964 22.485 61.7656 21.8164 61.7656 21.1562ZM74.4355 37.7363C74.4355 37.9733 74.3763 38.168 74.2578 38.3203C74.1393 38.4727 73.987 38.5911 73.8008 38.6758C73.6315 38.7773 73.4368 38.8451 73.2168 38.8789C73.0137 38.9297 72.8275 38.9551 72.6582 38.9551C72.0658 38.9551 71.5495 38.7858 71.1094 38.4473C70.6693 38.1087 70.2884 37.6686 69.9668 37.127C69.6452 36.6022 69.3828 36.0013 69.1797 35.3242C68.9766 34.6302 68.8073 33.9447 68.6719 33.2676C68.5365 32.5736 68.4349 31.9134 68.3672 31.2871C68.2995 30.6439 68.2487 30.0938 68.2148 29.6367C68.0625 28.0625 67.9525 26.4629 67.8848 24.8379C67.834 23.2129 67.8086 21.6048 67.8086 20.0137C67.8086 15.6634 67.9609 11.3555 68.2656 7.08984C68.2656 7.02214 68.2656 6.94596 68.2656 6.86133C68.2826 6.77669 68.291 6.69206 68.291 6.60742C68.3079 6.25195 68.3249 5.8457 68.3418 5.38867C68.3587 4.91471 68.3841 4.44922 68.418 3.99219C68.4518 3.53516 68.4857 3.12044 68.5195 2.74805C68.5703 2.35872 68.6296 2.08789 68.6973 1.93555V1.96094C68.765 1.72396 68.8581 1.54622 68.9766 1.42773C69.0951 1.30924 69.2982 1.25 69.5859 1.25C70.1953 1.25 70.7116 1.45312 71.1348 1.85938C71.5579 2.26562 71.7695 2.77344 71.7695 3.38281C71.7695 3.51823 71.7611 3.65365 71.7441 3.78906C71.7441 3.90755 71.7357 4.02604 71.7188 4.14453C71.7018 4.26302 71.6849 4.38151 71.668 4.5C71.668 4.60156 71.668 4.69466 71.668 4.7793C71.6172 5.43945 71.5749 6.09961 71.541 6.75977C71.5241 7.40299 71.4987 8.05469 71.4648 8.71484C71.3802 10.1706 71.3125 11.6263 71.2617 13.082C71.2279 14.5208 71.2109 15.9766 71.2109 17.4492C71.2109 18.0755 71.2194 18.8965 71.2363 19.9121C71.2533 20.9277 71.2871 22.0365 71.3379 23.2383C71.3887 24.4232 71.4564 25.6504 71.541 26.9199C71.6426 28.1895 71.7695 29.3997 71.9219 30.5508C72.0742 31.7018 72.252 32.7428 72.4551 33.6738C72.6751 34.6048 72.929 35.3242 73.2168 35.832C73.3691 35.8997 73.513 36.0098 73.6484 36.1621C73.8008 36.2975 73.9277 36.4583 74.0293 36.6445C74.1478 36.8138 74.2409 36.9915 74.3086 37.1777C74.3932 37.3809 74.4355 37.5671 74.4355 37.7363ZM93.4531 23.0352C93.4531 23.3906 93.3262 23.763 93.0723 24.1523C92.8184 24.5417 92.5391 24.8294 92.2344 25.0156C92.1497 25.0664 92.0059 25.1172 91.8027 25.168C91.5996 25.2188 91.3796 25.2695 91.1426 25.3203C90.9225 25.3542 90.7025 25.3965 90.4824 25.4473C90.2793 25.4811 90.1185 25.5065 90 25.5234L90.6094 29.2812C90.7956 30.4492 90.931 31.6257 91.0156 32.8105C91.1172 33.9785 91.3372 35.138 91.6758 36.2891C91.7096 36.3906 91.7435 36.4837 91.7773 36.5684C91.8112 36.653 91.8281 36.763 91.8281 36.8984C91.8281 37.1185 91.7604 37.2878 91.625 37.4062C91.5065 37.5247 91.3542 37.6094 91.168 37.6602C90.9987 37.7279 90.8125 37.7702 90.6094 37.7871C90.4062 37.804 90.2201 37.8125 90.0508 37.8125H89.6953C89.1706 37.8125 88.7643 37.7702 88.4766 37.6855C88.2057 37.6009 87.9941 37.457 87.8418 37.2539C87.6895 37.0508 87.5879 36.7969 87.5371 36.4922C87.4863 36.1706 87.4271 35.7812 87.3594 35.3242C86.9531 32.2266 86.4961 29.1289 85.9883 26.0312C84.9388 26.1667 83.8809 26.2936 82.8145 26.4121C81.765 26.5306 80.707 26.6406 79.6406 26.7422L78.8281 31.7188C78.7943 32.0234 78.7435 32.4382 78.6758 32.9629C78.625 33.4876 78.5573 34.0293 78.4727 34.5879C78.4049 35.1296 78.3203 35.6374 78.2188 36.1113C78.1341 36.5853 78.0326 36.9323 77.9141 37.1523C77.8125 37.3555 77.7194 37.4993 77.6348 37.584C77.5501 37.6686 77.3893 37.7109 77.1523 37.7109C76.8477 37.7109 76.543 37.6517 76.2383 37.5332C75.9505 37.4316 75.6882 37.2793 75.4512 37.0762C75.2311 36.89 75.0534 36.6615 74.918 36.3906C74.7826 36.1198 74.7148 35.8151 74.7148 35.4766C74.7148 35.138 74.7487 34.7995 74.8164 34.4609C74.901 34.1224 74.9688 33.7839 75.0195 33.4453C75.2057 32.3281 75.375 31.2194 75.5273 30.1191C75.6797 29.002 75.849 27.8932 76.0352 26.793C75.9167 26.776 75.7812 26.7507 75.6289 26.7168C75.4766 26.666 75.3242 26.6068 75.1719 26.5391C75.0365 26.4714 74.918 26.3867 74.8164 26.2852C74.7148 26.1836 74.6641 26.0651 74.6641 25.9297C74.6641 25.7604 74.7233 25.6081 74.8418 25.4727C74.9772 25.3203 75.1296 25.1849 75.2988 25.0664C75.485 24.931 75.6712 24.821 75.8574 24.7363C76.0436 24.6348 76.2044 24.5586 76.3398 24.5078C76.6953 22.138 77.0339 19.7767 77.3555 17.4238C77.6771 15.071 77.9648 12.6927 78.2188 10.2891C78.2865 9.64583 78.3457 8.99414 78.3965 8.33398C78.4473 7.67383 78.498 7.01367 78.5488 6.35352C78.6165 5.69336 78.6927 5.04167 78.7773 4.39844C78.8789 3.75521 79.0143 3.11198 79.1836 2.46875C79.3359 1.85938 79.5898 1.36849 79.9453 0.996094C80.3008 0.623698 80.8255 0.4375 81.5195 0.4375C81.7227 0.4375 81.9173 0.454427 82.1035 0.488281C82.3066 0.522135 82.4844 0.589844 82.6367 0.691406C83.0768 0.911458 83.5339 1.51237 84.0078 2.49414C84.4818 3.47591 84.9557 4.66927 85.4297 6.07422C85.9036 7.46224 86.3522 8.96875 86.7754 10.5938C87.2155 12.2188 87.6133 13.793 87.9688 15.3164C88.3242 16.8398 88.6289 18.2194 88.8828 19.4551C89.1367 20.6738 89.3229 21.5794 89.4414 22.1719C89.7969 22.1211 90.1523 22.0788 90.5078 22.0449C90.8633 21.9941 91.2188 21.9688 91.5742 21.9688C91.7435 21.9688 91.9382 21.9772 92.1582 21.9941C92.3783 22.0111 92.5814 22.0618 92.7676 22.1465C92.9707 22.2142 93.1315 22.3242 93.25 22.4766C93.3854 22.612 93.4531 22.7982 93.4531 23.0352ZM85.4805 22.832C85.0404 20.4284 84.5579 18.0501 84.0332 15.6973C83.5254 13.3275 82.9245 10.9661 82.2305 8.61328C81.9258 11.1693 81.5957 13.7083 81.2402 16.2305C80.8848 18.7526 80.5039 21.2747 80.0977 23.7969C81.0117 23.6615 81.9089 23.5176 82.7891 23.3652C83.6862 23.196 84.5833 23.0182 85.4805 22.832ZM104.473 36.1113C104.473 36.3145 104.396 36.4753 104.244 36.5938C104.109 36.6953 103.948 36.7715 103.762 36.8223C103.576 36.873 103.381 36.9069 103.178 36.9238C102.975 36.9408 102.814 36.9492 102.695 36.9492C102.441 36.9492 102.213 36.9408 102.01 36.9238C101.807 36.9069 101.612 36.8646 101.426 36.7969C101.257 36.7292 101.096 36.6276 100.943 36.4922C100.791 36.3568 100.639 36.1706 100.486 35.9336C100.199 35.4089 99.9277 34.8672 99.6738 34.3086C99.4368 33.75 99.1999 33.1999 98.9629 32.6582C98.8444 32.3535 98.7428 32.1081 98.6582 31.9219C98.5905 31.7357 98.4889 31.4987 98.3535 31.2109C97.9811 32.1758 97.6003 33.1152 97.2109 34.0293C96.8385 34.9434 96.4492 35.8574 96.043 36.7715C95.9245 37.0085 95.7891 37.237 95.6367 37.457C95.5013 37.694 95.2559 37.8125 94.9004 37.8125C94.7142 37.8125 94.4857 37.7533 94.2148 37.6348C93.9609 37.5332 93.707 37.3893 93.4531 37.2031C93.2161 37.0339 93.0046 36.8392 92.8184 36.6191C92.6491 36.3991 92.5645 36.179 92.5645 35.959C92.5645 35.7897 92.5983 35.6204 92.666 35.4512C92.7337 35.265 92.8099 35.0872 92.8945 34.918H92.8691C93.5124 33.5299 94.1133 32.1673 94.6719 30.8301C95.2474 29.4759 95.8145 28.1133 96.373 26.7422C96.2546 26.4714 96.0853 26.0566 95.8652 25.498C95.6621 24.9395 95.4336 24.3216 95.1797 23.6445C94.9258 22.9674 94.6634 22.2565 94.3926 21.5117C94.1217 20.7669 93.8763 20.0729 93.6562 19.4297C93.4531 18.7695 93.2754 18.194 93.123 17.7031C92.9876 17.1953 92.9199 16.8398 92.9199 16.6367C92.9199 16.2982 93.0215 16.0866 93.2246 16.002C93.4447 15.9004 93.6901 15.8496 93.9609 15.8496C94.5026 15.8496 94.9681 15.9596 95.3574 16.1797C95.7637 16.3997 96.0768 16.7721 96.2969 17.2969C96.3815 17.5169 96.4661 17.7539 96.5508 18.0078C96.6523 18.2448 96.737 18.4818 96.8047 18.7188L97.0332 19.3535C97.2363 19.8952 97.4141 20.3861 97.5664 20.8262C97.7357 21.2663 97.9388 21.7487 98.1758 22.2734C98.599 21.1901 98.9883 20.0729 99.3438 18.9219C99.7161 17.7539 99.987 16.5859 100.156 15.418L100.232 14.7324C100.232 14.4954 100.266 14.2415 100.334 13.9707C100.419 13.7337 100.512 13.556 100.613 13.4375C100.732 13.319 100.935 13.2598 101.223 13.2598C101.493 13.2598 101.756 13.3021 102.01 13.3867C102.264 13.4714 102.492 13.5983 102.695 13.7676C102.898 13.9199 103.059 14.1146 103.178 14.3516C103.313 14.5716 103.381 14.834 103.381 15.1387C103.381 15.6126 103.322 16.1712 103.203 16.8145C103.102 17.4408 102.958 18.1094 102.771 18.8203C102.585 19.5143 102.374 20.2337 102.137 20.9785C101.917 21.7233 101.68 22.4512 101.426 23.1621C101.189 23.8561 100.952 24.5163 100.715 25.1426C100.495 25.752 100.3 26.2852 100.131 26.7422L101.68 30.0176C101.984 30.6608 102.298 31.3294 102.619 32.0234C102.958 32.7174 103.262 33.3607 103.533 33.9531C103.804 34.5286 104.024 35.0195 104.193 35.4258C104.38 35.832 104.473 36.0605 104.473 36.1113ZM115.086 32.3535C115.086 32.8613 114.942 33.3861 114.654 33.9277C114.383 34.4694 114.028 34.9688 113.588 35.4258C113.148 35.8659 112.64 36.2298 112.064 36.5176C111.506 36.8053 110.947 36.9492 110.389 36.9492C109.593 36.9492 108.908 36.7969 108.332 36.4922C107.757 36.1706 107.257 35.7474 106.834 35.2227C106.411 34.681 106.064 34.0716 105.793 33.3945C105.539 32.7174 105.336 32.0234 105.184 31.3125C105.031 30.5846 104.921 29.8652 104.854 29.1543C104.803 28.4264 104.777 27.7663 104.777 27.1738C104.777 26.666 104.803 26.0651 104.854 25.3711C104.921 24.6771 105.023 23.9577 105.158 23.2129C105.311 22.4681 105.514 21.7318 105.768 21.0039C106.021 20.276 106.335 19.6243 106.707 19.0488C107.096 18.4733 107.553 18.0078 108.078 17.6523C108.62 17.2969 109.238 17.1191 109.932 17.1191C110.473 17.1191 110.956 17.2292 111.379 17.4492C111.819 17.6693 112.183 17.9655 112.471 18.3379C112.775 18.6934 113.004 19.1081 113.156 19.582C113.326 20.056 113.41 20.5469 113.41 21.0547C113.41 21.7148 113.258 22.4342 112.953 23.2129C112.648 23.9915 112.251 24.7448 111.76 25.4727C111.286 26.2005 110.744 26.8607 110.135 27.4531C109.542 28.0286 108.95 28.4688 108.357 28.7734C108.391 29.0781 108.459 29.5267 108.561 30.1191C108.662 30.6947 108.798 31.2702 108.967 31.8457C109.153 32.4212 109.365 32.9206 109.602 33.3438C109.855 33.7669 110.152 33.9785 110.49 33.9785C110.66 33.9785 110.803 33.9277 110.922 33.8262C111.057 33.7246 111.176 33.5892 111.277 33.4199C111.379 33.2507 111.464 33.0645 111.531 32.8613C111.616 32.6582 111.692 32.4635 111.76 32.2773L111.912 31.9219C111.946 31.8711 111.963 31.8372 111.963 31.8203C111.98 31.8034 111.997 31.778 112.014 31.7441C112.132 31.5241 112.242 31.321 112.344 31.1348C112.462 30.9486 112.623 30.7878 112.826 30.6523H112.801C112.868 30.5846 112.936 30.5508 113.004 30.5508C113.089 30.5339 113.165 30.5254 113.232 30.5254C113.419 30.5254 113.622 30.5846 113.842 30.7031C114.062 30.8216 114.265 30.974 114.451 31.1602C114.637 31.3294 114.79 31.5241 114.908 31.7441C115.027 31.9473 115.086 32.1504 115.086 32.3535ZM110.059 21.1562C110.059 20.987 110.05 20.8092 110.033 20.623C110.016 20.4368 109.974 20.276 109.906 20.1406C109.669 20.4284 109.458 20.7754 109.271 21.1816C109.102 21.571 108.958 21.9857 108.84 22.4258C108.721 22.849 108.62 23.2806 108.535 23.7207C108.467 24.1608 108.417 24.5671 108.383 24.9395C108.823 24.4147 109.212 23.8223 109.551 23.1621C109.889 22.485 110.059 21.8164 110.059 21.1562ZM122.729 37.7363C122.729 37.9733 122.669 38.168 122.551 38.3203C122.432 38.4727 122.28 38.5911 122.094 38.6758C121.924 38.7773 121.73 38.8451 121.51 38.8789C121.307 38.9297 121.12 38.9551 120.951 38.9551C120.359 38.9551 119.842 38.7858 119.402 38.4473C118.962 38.1087 118.581 37.6686 118.26 37.127C117.938 36.6022 117.676 36.0013 117.473 35.3242C117.27 34.6302 117.1 33.9447 116.965 33.2676C116.829 32.5736 116.728 31.9134 116.66 31.2871C116.592 30.6439 116.542 30.0938 116.508 29.6367C116.355 28.0625 116.245 26.4629 116.178 24.8379C116.127 23.2129 116.102 21.6048 116.102 20.0137C116.102 15.6634 116.254 11.3555 116.559 7.08984C116.559 7.02214 116.559 6.94596 116.559 6.86133C116.576 6.77669 116.584 6.69206 116.584 6.60742C116.601 6.25195 116.618 5.8457 116.635 5.38867C116.652 4.91471 116.677 4.44922 116.711 3.99219C116.745 3.53516 116.779 3.12044 116.812 2.74805C116.863 2.35872 116.923 2.08789 116.99 1.93555V1.96094C117.058 1.72396 117.151 1.54622 117.27 1.42773C117.388 1.30924 117.591 1.25 117.879 1.25C118.488 1.25 119.005 1.45312 119.428 1.85938C119.851 2.26562 120.062 2.77344 120.062 3.38281C120.062 3.51823 120.054 3.65365 120.037 3.78906C120.037 3.90755 120.029 4.02604 120.012 4.14453C119.995 4.26302 119.978 4.38151 119.961 4.5C119.961 4.60156 119.961 4.69466 119.961 4.7793C119.91 5.43945 119.868 6.09961 119.834 6.75977C119.817 7.40299 119.792 8.05469 119.758 8.71484C119.673 10.1706 119.605 11.6263 119.555 13.082C119.521 14.5208 119.504 15.9766 119.504 17.4492C119.504 18.0755 119.512 18.8965 119.529 19.9121C119.546 20.9277 119.58 22.0365 119.631 23.2383C119.682 24.4232 119.749 25.6504 119.834 26.9199C119.936 28.1895 120.062 29.3997 120.215 30.5508C120.367 31.7018 120.545 32.7428 120.748 33.6738C120.968 34.6048 121.222 35.3242 121.51 35.832C121.662 35.8997 121.806 36.0098 121.941 36.1621C122.094 36.2975 122.221 36.4583 122.322 36.6445C122.441 36.8138 122.534 36.9915 122.602 37.1777C122.686 37.3809 122.729 37.5671 122.729 37.7363Z"
    fill="white" />
</svg>