<svg width="124" height="75" viewBox="0 0 124 75" fill="none" xmlns="http://www.w3.org/2000/svg">
  <rect width="124" height="75" fill="none"/>
  <path d="M21.7344 55.8984C21.7344 56.1016 21.6328 56.2708 21.4297 56.4062C21.2266 56.5417 20.9811 56.6517 20.6934 56.7363C20.4225 56.821 20.1432 56.8802 19.8555 56.9141C19.5846 56.9479 19.3815 56.9648 19.2461 56.9648C18.9076 56.9648 18.6283 56.931 18.4082 56.8633C18.2051 56.8125 17.9596 56.7109 17.6719 56.5586C17.5872 56.5078 17.3841 56.2962 17.0625 55.9238C16.7578 55.5345 16.3685 55.0352 15.8945 54.4258C15.4375 53.8164 14.9128 53.1224 14.3203 52.3438C13.7448 51.5651 13.1439 50.7695 12.5176 49.957C11.9082 49.1276 11.2988 48.3066 10.6895 47.4941C10.097 46.6647 9.54688 45.9115 9.03906 45.2344C8.53125 44.5404 8.09115 43.9395 7.71875 43.4316C7.36328 42.9069 7.10938 42.543 6.95703 42.3398L6.80469 42.3906C6.90625 44.4049 7.0332 46.4193 7.18555 48.4336C7.35482 50.431 7.63411 52.4115 8.02344 54.375C8.07422 54.5781 8.125 54.7897 8.17578 55.0098C8.24349 55.2298 8.27734 55.4583 8.27734 55.6953C8.27734 56.0846 8.15039 56.3301 7.89648 56.4316C7.64258 56.5501 7.36328 56.6094 7.05859 56.6094C6.88932 56.6094 6.6862 56.6009 6.44922 56.584C6.21224 56.5671 5.9668 56.5332 5.71289 56.4824C5.45898 56.4316 5.22201 56.3639 5.00195 56.2793C4.79883 56.2116 4.63802 56.1185 4.51953 56C4.28255 55.7969 4.13021 55.5853 4.0625 55.3652C4.01172 55.1452 3.96094 54.8828 3.91016 54.5781C3.41927 51.1758 3.10612 47.765 2.9707 44.3457C2.85221 40.9095 2.79297 37.4818 2.79297 34.0625C2.79297 32.5729 2.80143 31.1087 2.81836 29.6699C2.83529 28.2311 2.86068 26.7669 2.89453 25.2773C2.69141 25.2604 2.49674 25.1927 2.31055 25.0742C2.14128 24.9557 1.98893 24.8118 1.85352 24.6426C1.7181 24.4564 1.60807 24.2702 1.52344 24.084C1.45573 23.8809 1.42188 23.6862 1.42188 23.5C1.42188 23.3138 1.46419 23.1276 1.54883 22.9414C1.65039 22.7552 1.76888 22.5859 1.9043 22.4336C2.05664 22.2812 2.21745 22.1374 2.38672 22.002C2.55599 21.8665 2.70833 21.7565 2.84375 21.6719V21.2148C2.84375 21.0456 2.84375 20.8509 2.84375 20.6309C2.86068 20.4108 2.89453 20.2077 2.94531 20.0215C3.01302 19.8184 3.11458 19.6576 3.25 19.5391C3.38542 19.4036 3.58854 19.3359 3.85938 19.3359C4.21484 19.3359 4.57031 19.3952 4.92578 19.5137C5.28125 19.6322 5.58594 19.8438 5.83984 20.1484C7.10938 19.6406 8.44661 19.3867 9.85156 19.3867C11.0872 19.3867 12.2129 19.6322 13.2285 20.123C14.2441 20.6139 15.1074 21.2741 15.8184 22.1035C16.5462 22.9329 17.1048 23.8893 17.4941 24.9727C17.8835 26.056 18.0781 27.1901 18.0781 28.375C18.0781 29.6445 17.8411 30.8802 17.3672 32.082C16.8932 33.2669 16.2754 34.3926 15.5137 35.459C14.752 36.5254 13.8802 37.5072 12.8984 38.4043C11.9336 39.2845 10.9518 40.0547 9.95312 40.7148C11.5443 42.8307 13.1523 44.9297 14.7773 47.0117C16.4193 49.0768 18.0951 51.1419 19.8047 53.207C19.9062 53.3255 20.0586 53.5033 20.2617 53.7402C20.4818 53.9772 20.7018 54.2396 20.9219 54.5273C21.1419 54.7982 21.3281 55.0605 21.4805 55.3145C21.6497 55.5684 21.7344 55.763 21.7344 55.8984ZM14.3203 27.9688C14.3203 27.3424 14.2103 26.6908 13.9902 26.0137C13.7702 25.3366 13.457 24.7272 13.0508 24.1855C12.6445 23.627 12.1536 23.1699 11.5781 22.8145C11.0195 22.459 10.3932 22.2812 9.69922 22.2812C9.14062 22.2812 8.58203 22.3659 8.02344 22.5352C7.48177 22.6875 6.95703 22.8906 6.44922 23.1445C6.48307 25.6667 6.50846 28.1888 6.52539 30.7109C6.55924 33.2331 6.60156 35.7552 6.65234 38.2773L7.10938 38.3281C7.98958 37.8372 8.85286 37.2194 9.69922 36.4746C10.5625 35.7298 11.3327 34.9004 12.0098 33.9863C12.7038 33.0723 13.2624 32.1074 13.6855 31.0918C14.1087 30.0592 14.3203 29.0182 14.3203 27.9688ZM30.3672 51.3535C30.3672 51.8613 30.2233 52.3861 29.9355 52.9277C29.6647 53.4694 29.3092 53.9688 28.8691 54.4258C28.429 54.8659 27.9212 55.2298 27.3457 55.5176C26.7871 55.8053 26.2285 55.9492 25.6699 55.9492C24.8743 55.9492 24.1888 55.7969 23.6133 55.4922C23.0378 55.1706 22.5384 54.7474 22.1152 54.2227C21.6921 53.681 21.3451 53.0716 21.0742 52.3945C20.8203 51.7174 20.6172 51.0234 20.4648 50.3125C20.3125 49.5846 20.2025 48.8652 20.1348 48.1543C20.084 47.4264 20.0586 46.7663 20.0586 46.1738C20.0586 45.666 20.084 45.0651 20.1348 44.3711C20.2025 43.6771 20.304 42.9577 20.4395 42.2129C20.5918 41.4681 20.7949 40.7318 21.0488 40.0039C21.3027 39.276 21.6159 38.6243 21.9883 38.0488C22.3776 37.4733 22.8346 37.0078 23.3594 36.6523C23.901 36.2969 24.5189 36.1191 25.2129 36.1191C25.7546 36.1191 26.237 36.2292 26.6602 36.4492C27.1003 36.6693 27.4642 36.9655 27.752 37.3379C28.0566 37.6934 28.2852 38.1081 28.4375 38.582C28.6068 39.056 28.6914 39.5469 28.6914 40.0547C28.6914 40.7148 28.5391 41.4342 28.2344 42.2129C27.9297 42.9915 27.5319 43.7448 27.041 44.4727C26.5671 45.2005 26.0254 45.8607 25.416 46.4531C24.8236 47.0286 24.2311 47.4688 23.6387 47.7734C23.6725 48.0781 23.7402 48.5267 23.8418 49.1191C23.9434 49.6947 24.0788 50.2702 24.248 50.8457C24.4342 51.4212 24.6458 51.9206 24.8828 52.3438C25.1367 52.7669 25.4329 52.9785 25.7715 52.9785C25.9408 52.9785 26.0846 52.9277 26.2031 52.8262C26.3385 52.7246 26.457 52.5892 26.5586 52.4199C26.6602 52.2507 26.7448 52.0645 26.8125 51.8613C26.8971 51.6582 26.9733 51.4635 27.041 51.2773L27.1934 50.9219C27.2272 50.8711 27.2441 50.8372 27.2441 50.8203C27.2611 50.8034 27.278 50.778 27.2949 50.7441C27.4134 50.5241 27.5234 50.321 27.625 50.1348C27.7435 49.9486 27.9043 49.7878 28.1074 49.6523H28.082C28.1497 49.5846 28.2174 49.5508 28.2852 49.5508C28.3698 49.5339 28.446 49.5254 28.5137 49.5254C28.6999 49.5254 28.903 49.5846 29.123 49.7031C29.3431 49.8216 29.5462 49.974 29.7324 50.1602C29.9186 50.3294 30.071 50.5241 30.1895 50.7441C30.3079 50.9473 30.3672 51.1504 30.3672 51.3535ZM25.3398 40.1562C25.3398 39.987 25.3314 39.8092 25.3145 39.623C25.2975 39.4368 25.2552 39.276 25.1875 39.1406C24.9505 39.4284 24.7389 39.7754 24.5527 40.1816C24.3835 40.571 24.2396 40.9857 24.1211 41.4258C24.0026 41.849 23.901 42.2806 23.8164 42.7207C23.7487 43.1608 23.6979 43.5671 23.6641 43.9395C24.1042 43.4147 24.4935 42.8223 24.832 42.1621C25.1706 41.485 25.3398 40.8164 25.3398 40.1562ZM41.4375 57.7266C41.4375 58.4206 41.4121 59.1484 41.3613 59.9102C41.3105 60.6719 41.2259 61.4336 41.1074 62.1953C40.9889 62.974 40.8281 63.7357 40.625 64.4805C40.4219 65.2253 40.168 65.9193 39.8633 66.5625C39.3555 67.5104 38.7122 68.3398 37.9336 69.0508C37.1719 69.7786 36.334 70.388 35.4199 70.8789C34.5059 71.3698 33.5326 71.7422 32.5 71.9961C31.4674 72.25 30.4264 72.377 29.377 72.377C29.2246 72.377 29.0469 72.3685 28.8438 72.3516C28.6237 72.3346 28.4121 72.2923 28.209 72.2246C28.0059 72.1738 27.8366 72.0807 27.7012 71.9453C27.5658 71.8099 27.498 71.6237 27.498 71.3867C27.498 71.2852 27.5234 71.1836 27.5742 71.082C27.5742 71.0482 27.5827 71.0143 27.5996 70.9805C27.5996 70.9635 27.5996 70.9466 27.5996 70.9297C27.7181 70.5911 27.8535 70.3203 28.0059 70.1172C28.1582 69.9141 28.3359 69.7533 28.5391 69.6348C28.7253 69.5332 28.9538 69.457 29.2246 69.4062C29.4785 69.3724 29.7747 69.3385 30.1133 69.3047C31.1966 69.2539 32.2207 69 33.1855 68.543V68.5684C34.2858 68.0267 35.1491 67.3496 35.7754 66.5371C36.4186 65.7415 36.901 64.8529 37.2227 63.8711C37.5612 62.9062 37.7728 61.8822 37.8574 60.7988C37.9421 59.7155 37.9844 58.6237 37.9844 57.5234C37.9844 57.2695 37.9844 57.0833 37.9844 56.9648C37.9844 56.8464 37.9844 56.7363 37.9844 56.6348C37.9844 56.5501 37.9844 56.4486 37.9844 56.3301C37.9844 56.2116 37.9759 56.0254 37.959 55.7715C37.3665 56.2285 36.7487 56.457 36.1055 56.457C35.3607 56.457 34.7259 56.2539 34.2012 55.8477C33.6934 55.4245 33.2617 54.8828 32.9062 54.2227C32.5677 53.5456 32.2969 52.7839 32.0938 51.9375C31.9076 51.0742 31.7637 50.2025 31.6621 49.3223C31.5775 48.4251 31.5182 47.5534 31.4844 46.707C31.4674 45.8607 31.459 45.1074 31.459 44.4473V43.3809C31.459 42.4837 31.459 41.6035 31.459 40.7402C31.4759 39.877 31.5098 39.0137 31.5605 38.1504V37.7695C31.5605 37.5664 31.5605 37.3633 31.5605 37.1602C31.5605 36.957 31.5775 36.7624 31.6113 36.5762C31.679 36.3053 31.7721 36.1107 31.8906 35.9922C32.026 35.8737 32.2376 35.8145 32.5254 35.8145C32.6608 35.8145 32.7878 35.8229 32.9062 35.8398C33.0417 35.8568 33.1771 35.8822 33.3125 35.916C33.6341 36.0514 33.888 36.1953 34.0742 36.3477C34.2604 36.4831 34.3958 36.6523 34.4805 36.8555C34.582 37.0417 34.6413 37.2617 34.6582 37.5156C34.6921 37.7695 34.709 38.0658 34.709 38.4043V41.8066C34.709 42.2129 34.709 42.7207 34.709 43.3301C34.7259 43.9225 34.7513 44.5742 34.7852 45.2852C34.819 45.9961 34.8613 46.7324 34.9121 47.4941C34.9629 48.2559 35.0391 48.9922 35.1406 49.7031C35.2422 50.4141 35.3607 51.0658 35.4961 51.6582C35.6315 52.2507 35.8008 52.7415 36.0039 53.1309C36.3086 52.4707 36.571 51.7005 36.791 50.8203C37.0111 49.9232 37.1888 48.9668 37.3242 47.9512C37.4766 46.9186 37.5866 45.8607 37.6543 44.7773C37.7389 43.694 37.7982 42.6361 37.832 41.6035C37.8828 40.571 37.9082 39.5977 37.9082 38.6836C37.9251 37.7526 37.9336 36.9401 37.9336 36.2461C37.9336 36.0768 37.9336 35.8991 37.9336 35.7129C37.9505 35.5098 37.9928 35.332 38.0605 35.1797C38.1283 35.0104 38.2214 34.875 38.3398 34.7734C38.4753 34.6719 38.6699 34.6211 38.9238 34.6211C39.0423 34.6211 39.1693 34.638 39.3047 34.6719C39.457 34.7057 39.584 34.7396 39.6855 34.7734C39.7194 34.7734 39.7533 34.7819 39.7871 34.7988C39.8379 34.7988 39.8802 34.7988 39.9141 34.7988C40.151 34.8835 40.3796 34.9681 40.5996 35.0527C40.8197 35.1374 41.0059 35.2474 41.1582 35.3828C41.3275 35.5013 41.4544 35.6621 41.5391 35.8652C41.6406 36.0684 41.6914 36.3307 41.6914 36.6523C41.6914 37.0417 41.6829 37.4902 41.666 37.998C41.666 38.4889 41.6491 39.0052 41.6152 39.5469C41.5983 40.0885 41.5729 40.6217 41.5391 41.1465C41.5052 41.6543 41.4714 42.1113 41.4375 42.5176L41.3359 43.4062C41.3021 43.6432 41.2767 43.8802 41.2598 44.1172C41.2428 44.3542 41.2344 44.5742 41.2344 44.7773C41.2344 45.8607 41.2428 46.944 41.2598 48.0273C41.2767 49.0938 41.3021 50.1686 41.3359 51.252C41.3698 52.3353 41.3952 53.4186 41.4121 54.502C41.429 55.5684 41.4375 56.6432 41.4375 57.7266ZM48.293 55.873C48.293 56.2624 48.1745 56.5163 47.9375 56.6348C47.7174 56.7533 47.4466 56.8125 47.125 56.8125C46.8372 56.8125 46.5495 56.7871 46.2617 56.7363C45.9909 56.7025 45.7285 56.6263 45.4746 56.5078C45.2376 56.3893 45.026 56.2285 44.8398 56.0254C44.6706 55.8223 44.5521 55.5599 44.4844 55.2383C44.2474 54.2227 44.112 53.2324 44.0781 52.2676C44.0443 51.2858 44.0273 50.2786 44.0273 49.2461V46.123C44.0273 44.7012 44.0866 43.2285 44.2051 41.7051C44.3236 40.1647 44.4505 38.6836 44.5859 37.2617C44.5859 37.2109 44.5944 37.1517 44.6113 37.084C44.6283 37.0163 44.6367 36.9655 44.6367 36.9316C44.6536 36.7454 44.679 36.5423 44.7129 36.3223C44.7467 36.1022 44.7975 35.9076 44.8652 35.7383C44.9499 35.5521 45.0599 35.3997 45.1953 35.2812C45.3477 35.1628 45.5423 35.1035 45.7793 35.1035C46.0501 35.1035 46.304 35.1628 46.541 35.2812C46.7949 35.3828 47.015 35.5267 47.2012 35.7129C47.3874 35.8822 47.5312 36.0938 47.6328 36.3477C47.7513 36.6016 47.8105 36.8639 47.8105 37.1348C47.8105 37.4225 47.8021 37.7441 47.7852 38.0996C47.7682 38.4382 47.7428 38.7598 47.709 39.0645C47.709 39.1491 47.7005 39.2422 47.6836 39.3438C47.6836 39.4453 47.6751 39.5384 47.6582 39.623C47.8952 39.1491 48.166 38.6582 48.4707 38.1504C48.7754 37.6257 49.1224 37.1517 49.5117 36.7285C49.918 36.2884 50.3581 35.9329 50.832 35.6621C51.3229 35.3913 51.8646 35.2559 52.457 35.2559C52.9479 35.2559 53.3542 35.332 53.6758 35.4844C53.9974 35.6367 54.2513 35.8568 54.4375 36.1445C54.6406 36.4154 54.776 36.737 54.8438 37.1094C54.9284 37.4818 54.9707 37.8796 54.9707 38.3027C54.9707 38.8783 54.9538 39.4622 54.9199 40.0547C54.8861 40.6302 54.8522 41.2057 54.8184 41.7812C54.7676 42.3737 54.7253 42.9577 54.6914 43.5332C54.6576 44.1087 54.6406 44.6927 54.6406 45.2852C54.6406 45.9961 54.6576 46.7324 54.6914 47.4941C54.7253 48.2389 54.776 48.9583 54.8438 49.6523C54.9115 50.3294 54.9876 50.9473 55.0723 51.5059C55.1569 52.0475 55.2415 52.4707 55.3262 52.7754C55.3939 53.0293 55.4616 53.3255 55.5293 53.6641C55.6139 53.9857 55.6901 54.3242 55.7578 54.6797C55.8424 55.0182 55.9102 55.3483 55.9609 55.6699C56.0117 55.9915 56.0371 56.2793 56.0371 56.5332C56.0371 56.9056 55.8848 57.1426 55.5801 57.2441C55.2923 57.3457 55.0046 57.3965 54.7168 57.3965C54.429 57.3965 54.099 57.3711 53.7266 57.3203C53.3711 57.2865 53.0495 57.1934 52.7617 57.041C52.4062 56.7871 52.1693 56.4316 52.0508 55.9746C51.9492 55.5176 51.8815 55.069 51.8477 54.6289L51.7715 53.9434C51.7207 53.5371 51.653 53.0039 51.5684 52.3438C51.4837 51.6836 51.3991 50.9557 51.3145 50.1602C51.2467 49.3646 51.1875 48.5436 51.1367 47.6973C51.0859 46.834 51.0605 45.9961 51.0605 45.1836C51.0605 44.4557 51.0859 43.7533 51.1367 43.0762C51.2044 42.3991 51.2721 41.7135 51.3398 41.0195C51.3737 40.6641 51.3991 40.3763 51.416 40.1562C51.4329 39.9362 51.4583 39.6484 51.4922 39.293C51.1536 39.8346 50.8151 40.4694 50.4766 41.1973C50.138 41.9251 49.8164 42.6868 49.5117 43.4824C49.207 44.2611 48.9277 45.0228 48.6738 45.7676C48.4368 46.5124 48.2507 47.1641 48.1152 47.7227L47.9629 48.2812C47.8783 48.5521 47.8021 48.8229 47.7344 49.0938C47.6836 49.3646 47.6582 49.6185 47.6582 49.8555C47.6582 50.1602 47.6751 50.5156 47.709 50.9219C47.7428 51.3112 47.7852 51.6836 47.8359 52.0391C47.8867 52.4622 47.946 52.8939 48.0137 53.334C48.0137 53.3678 48.0306 53.4779 48.0645 53.6641C48.0983 53.8503 48.1322 54.0703 48.166 54.3242C48.1999 54.5781 48.2253 54.849 48.2422 55.1367C48.276 55.4076 48.293 55.653 48.293 55.873ZM67.793 51.3535C67.793 51.8613 67.6491 52.3861 67.3613 52.9277C67.0905 53.4694 66.735 53.9688 66.2949 54.4258C65.8548 54.8659 65.347 55.2298 64.7715 55.5176C64.2129 55.8053 63.6543 55.9492 63.0957 55.9492C62.3001 55.9492 61.6146 55.7969 61.0391 55.4922C60.4635 55.1706 59.9642 54.7474 59.541 54.2227C59.1178 53.681 58.7708 53.0716 58.5 52.3945C58.2461 51.7174 58.043 51.0234 57.8906 50.3125C57.7383 49.5846 57.6283 48.8652 57.5605 48.1543C57.5098 47.4264 57.4844 46.7663 57.4844 46.1738C57.4844 45.666 57.5098 45.0651 57.5605 44.3711C57.6283 43.6771 57.7298 42.9577 57.8652 42.2129C58.0176 41.4681 58.2207 40.7318 58.4746 40.0039C58.7285 39.276 59.0417 38.6243 59.4141 38.0488C59.8034 37.4733 60.2604 37.0078 60.7852 36.6523C61.3268 36.2969 61.9447 36.1191 62.6387 36.1191C63.1803 36.1191 63.6628 36.2292 64.0859 36.4492C64.526 36.6693 64.89 36.9655 65.1777 37.3379C65.4824 37.6934 65.7109 38.1081 65.8633 38.582C66.0326 39.056 66.1172 39.5469 66.1172 40.0547C66.1172 40.7148 65.9648 41.4342 65.6602 42.2129C65.3555 42.9915 64.9577 43.7448 64.4668 44.4727C63.9928 45.2005 63.4512 45.8607 62.8418 46.4531C62.2493 47.0286 61.6569 47.4688 61.0645 47.7734C61.0983 48.0781 61.166 48.5267 61.2676 49.1191C61.3691 49.6947 61.5046 50.2702 61.6738 50.8457C61.86 51.4212 62.0716 51.9206 62.3086 52.3438C62.5625 52.7669 62.8587 52.9785 63.1973 52.9785C63.3665 52.9785 63.5104 52.9277 63.6289 52.8262C63.7643 52.7246 63.8828 52.5892 63.9844 52.4199C64.0859 52.2507 64.1706 52.0645 64.2383 51.8613C64.3229 51.6582 64.3991 51.4635 64.4668 51.2773L64.6191 50.9219C64.653 50.8711 64.6699 50.8372 64.6699 50.8203C64.6868 50.8034 64.7038 50.778 64.7207 50.7441C64.8392 50.5241 64.9492 50.321 65.0508 50.1348C65.1693 49.9486 65.3301 49.7878 65.5332 49.6523H65.5078C65.5755 49.5846 65.6432 49.5508 65.7109 49.5508C65.7956 49.5339 65.8717 49.5254 65.9395 49.5254C66.1257 49.5254 66.3288 49.5846 66.5488 49.7031C66.7689 49.8216 66.972 49.974 67.1582 50.1602C67.3444 50.3294 67.4967 50.5241 67.6152 50.7441C67.7337 50.9473 67.793 51.1504 67.793 51.3535ZM62.7656 40.1562C62.7656 39.987 62.7572 39.8092 62.7402 39.623C62.7233 39.4368 62.681 39.276 62.6133 39.1406C62.3763 39.4284 62.1647 39.7754 61.9785 40.1816C61.8092 40.571 61.6654 40.9857 61.5469 41.4258C61.4284 41.849 61.3268 42.2806 61.2422 42.7207C61.1745 43.1608 61.1237 43.5671 61.0898 43.9395C61.5299 43.4147 61.9193 42.8223 62.2578 42.1621C62.5964 41.485 62.7656 40.8164 62.7656 40.1562ZM75.4355 56.7363C75.4355 56.9733 75.3763 57.168 75.2578 57.3203C75.1393 57.4727 74.987 57.5911 74.8008 57.6758C74.6315 57.7773 74.4368 57.8451 74.2168 57.8789C74.0137 57.9297 73.8275 57.9551 73.6582 57.9551C73.0658 57.9551 72.5495 57.7858 72.1094 57.4473C71.6693 57.1087 71.2884 56.6686 70.9668 56.127C70.6452 55.6022 70.3828 55.0013 70.1797 54.3242C69.9766 53.6302 69.8073 52.9447 69.6719 52.2676C69.5365 51.5736 69.4349 50.9134 69.3672 50.2871C69.2995 49.6439 69.2487 49.0938 69.2148 48.6367C69.0625 47.0625 68.9525 45.4629 68.8848 43.8379C68.834 42.2129 68.8086 40.6048 68.8086 39.0137C68.8086 34.6634 68.9609 30.3555 69.2656 26.0898C69.2656 26.0221 69.2656 25.946 69.2656 25.8613C69.2826 25.7767 69.291 25.6921 69.291 25.6074C69.3079 25.252 69.3249 24.8457 69.3418 24.3887C69.3587 23.9147 69.3841 23.4492 69.418 22.9922C69.4518 22.5352 69.4857 22.1204 69.5195 21.748C69.5703 21.3587 69.6296 21.0879 69.6973 20.9355V20.9609C69.765 20.724 69.8581 20.5462 69.9766 20.4277C70.0951 20.3092 70.2982 20.25 70.5859 20.25C71.1953 20.25 71.7116 20.4531 72.1348 20.8594C72.5579 21.2656 72.7695 21.7734 72.7695 22.3828C72.7695 22.5182 72.7611 22.6536 72.7441 22.7891C72.7441 22.9076 72.7357 23.026 72.7188 23.1445C72.7018 23.263 72.6849 23.3815 72.668 23.5C72.668 23.6016 72.668 23.6947 72.668 23.7793C72.6172 24.4395 72.5749 25.0996 72.541 25.7598C72.5241 26.403 72.4987 27.0547 72.4648 27.7148C72.3802 29.1706 72.3125 30.6263 72.2617 32.082C72.2279 33.5208 72.2109 34.9766 72.2109 36.4492C72.2109 37.0755 72.2194 37.8965 72.2363 38.9121C72.2533 39.9277 72.2871 41.0365 72.3379 42.2383C72.3887 43.4232 72.4564 44.6504 72.541 45.9199C72.6426 47.1895 72.7695 48.3997 72.9219 49.5508C73.0742 50.7018 73.252 51.7428 73.4551 52.6738C73.6751 53.6048 73.929 54.3242 74.2168 54.832C74.3691 54.8997 74.513 55.0098 74.6484 55.1621C74.8008 55.2975 74.9277 55.4583 75.0293 55.6445C75.1478 55.8138 75.2409 55.9915 75.3086 56.1777C75.3932 56.3809 75.4355 56.5671 75.4355 56.7363ZM94.4531 42.0352C94.4531 42.3906 94.3262 42.763 94.0723 43.1523C93.8184 43.5417 93.5391 43.8294 93.2344 44.0156C93.1497 44.0664 93.0059 44.1172 92.8027 44.168C92.5996 44.2188 92.3796 44.2695 92.1426 44.3203C91.9225 44.3542 91.7025 44.3965 91.4824 44.4473C91.2793 44.4811 91.1185 44.5065 91 44.5234L91.6094 48.2812C91.7956 49.4492 91.931 50.6257 92.0156 51.8105C92.1172 52.9785 92.3372 54.138 92.6758 55.2891C92.7096 55.3906 92.7435 55.4837 92.7773 55.5684C92.8112 55.653 92.8281 55.763 92.8281 55.8984C92.8281 56.1185 92.7604 56.2878 92.625 56.4062C92.5065 56.5247 92.3542 56.6094 92.168 56.6602C91.9987 56.7279 91.8125 56.7702 91.6094 56.7871C91.4062 56.804 91.2201 56.8125 91.0508 56.8125H90.6953C90.1706 56.8125 89.7643 56.7702 89.4766 56.6855C89.2057 56.6009 88.9941 56.457 88.8418 56.2539C88.6895 56.0508 88.5879 55.7969 88.5371 55.4922C88.4863 55.1706 88.4271 54.7812 88.3594 54.3242C87.9531 51.2266 87.4961 48.1289 86.9883 45.0312C85.9388 45.1667 84.8809 45.2936 83.8145 45.4121C82.765 45.5306 81.707 45.6406 80.6406 45.7422L79.8281 50.7188C79.7943 51.0234 79.7435 51.4382 79.6758 51.9629C79.625 52.4876 79.5573 53.0293 79.4727 53.5879C79.4049 54.1296 79.3203 54.6374 79.2188 55.1113C79.1341 55.5853 79.0326 55.9323 78.9141 56.1523C78.8125 56.3555 78.7194 56.4993 78.6348 56.584C78.5501 56.6686 78.3893 56.7109 78.1523 56.7109C77.8477 56.7109 77.543 56.6517 77.2383 56.5332C76.9505 56.4316 76.6882 56.2793 76.4512 56.0762C76.2311 55.89 76.0534 55.6615 75.918 55.3906C75.7826 55.1198 75.7148 54.8151 75.7148 54.4766C75.7148 54.138 75.7487 53.7995 75.8164 53.4609C75.901 53.1224 75.9688 52.7839 76.0195 52.4453C76.2057 51.3281 76.375 50.2194 76.5273 49.1191C76.6797 48.002 76.849 46.8932 77.0352 45.793C76.9167 45.776 76.7812 45.7507 76.6289 45.7168C76.4766 45.666 76.3242 45.6068 76.1719 45.5391C76.0365 45.4714 75.918 45.3867 75.8164 45.2852C75.7148 45.1836 75.6641 45.0651 75.6641 44.9297C75.6641 44.7604 75.7233 44.6081 75.8418 44.4727C75.9772 44.3203 76.1296 44.1849 76.2988 44.0664C76.485 43.931 76.6712 43.821 76.8574 43.7363C77.0436 43.6348 77.2044 43.5586 77.3398 43.5078C77.6953 41.138 78.0339 38.7767 78.3555 36.4238C78.6771 34.071 78.9648 31.6927 79.2188 29.2891C79.2865 28.6458 79.3457 27.9941 79.3965 27.334C79.4473 26.6738 79.498 26.0137 79.5488 25.3535C79.6165 24.6934 79.6927 24.0417 79.7773 23.3984C79.8789 22.7552 80.0143 22.112 80.1836 21.4688C80.3359 20.8594 80.5898 20.3685 80.9453 19.9961C81.3008 19.6237 81.8255 19.4375 82.5195 19.4375C82.7227 19.4375 82.9173 19.4544 83.1035 19.4883C83.3066 19.5221 83.4844 19.5898 83.6367 19.6914C84.0768 19.9115 84.5339 20.5124 85.0078 21.4941C85.4818 22.4759 85.9557 23.6693 86.4297 25.0742C86.9036 26.4622 87.3522 27.9688 87.7754 29.5938C88.2155 31.2188 88.6133 32.793 88.9688 34.3164C89.3242 35.8398 89.6289 37.2194 89.8828 38.4551C90.1367 39.6738 90.3229 40.5794 90.4414 41.1719C90.7969 41.1211 91.1523 41.0788 91.5078 41.0449C91.8633 40.9941 92.2188 40.9688 92.5742 40.9688C92.7435 40.9688 92.9382 40.9772 93.1582 40.9941C93.3783 41.0111 93.5814 41.0618 93.7676 41.1465C93.9707 41.2142 94.1315 41.3242 94.25 41.4766C94.3854 41.612 94.4531 41.7982 94.4531 42.0352ZM86.4805 41.832C86.0404 39.4284 85.5579 37.0501 85.0332 34.6973C84.5254 32.3275 83.9245 29.9661 83.2305 27.6133C82.9258 30.1693 82.5957 32.7083 82.2402 35.2305C81.8848 37.7526 81.5039 40.2747 81.0977 42.7969C82.0117 42.6615 82.9089 42.5176 83.7891 42.3652C84.6862 42.196 85.5833 42.0182 86.4805 41.832ZM105.473 55.1113C105.473 55.3145 105.396 55.4753 105.244 55.5938C105.109 55.6953 104.948 55.7715 104.762 55.8223C104.576 55.873 104.381 55.9069 104.178 55.9238C103.975 55.9408 103.814 55.9492 103.695 55.9492C103.441 55.9492 103.213 55.9408 103.01 55.9238C102.807 55.9069 102.612 55.8646 102.426 55.7969C102.257 55.7292 102.096 55.6276 101.943 55.4922C101.791 55.3568 101.639 55.1706 101.486 54.9336C101.199 54.4089 100.928 53.8672 100.674 53.3086C100.437 52.75 100.2 52.1999 99.9629 51.6582C99.8444 51.3535 99.7428 51.1081 99.6582 50.9219C99.5905 50.7357 99.4889 50.4987 99.3535 50.2109C98.9811 51.1758 98.6003 52.1152 98.2109 53.0293C97.8385 53.9434 97.4492 54.8574 97.043 55.7715C96.9245 56.0085 96.7891 56.237 96.6367 56.457C96.5013 56.694 96.2559 56.8125 95.9004 56.8125C95.7142 56.8125 95.4857 56.7533 95.2148 56.6348C94.9609 56.5332 94.707 56.3893 94.4531 56.2031C94.2161 56.0339 94.0046 55.8392 93.8184 55.6191C93.6491 55.3991 93.5645 55.179 93.5645 54.959C93.5645 54.7897 93.5983 54.6204 93.666 54.4512C93.7337 54.265 93.8099 54.0872 93.8945 53.918H93.8691C94.5124 52.5299 95.1133 51.1673 95.6719 49.8301C96.2474 48.4759 96.8145 47.1133 97.373 45.7422C97.2546 45.4714 97.0853 45.0566 96.8652 44.498C96.6621 43.9395 96.4336 43.3216 96.1797 42.6445C95.9258 41.9674 95.6634 41.2565 95.3926 40.5117C95.1217 39.7669 94.8763 39.0729 94.6562 38.4297C94.4531 37.7695 94.2754 37.194 94.123 36.7031C93.9876 36.1953 93.9199 35.8398 93.9199 35.6367C93.9199 35.2982 94.0215 35.0866 94.2246 35.002C94.4447 34.9004 94.6901 34.8496 94.9609 34.8496C95.5026 34.8496 95.9681 34.9596 96.3574 35.1797C96.7637 35.3997 97.0768 35.7721 97.2969 36.2969C97.3815 36.5169 97.4661 36.7539 97.5508 37.0078C97.6523 37.2448 97.737 37.4818 97.8047 37.7188L98.0332 38.3535C98.2363 38.8952 98.4141 39.3861 98.5664 39.8262C98.7357 40.2663 98.9388 40.7487 99.1758 41.2734C99.599 40.1901 99.9883 39.0729 100.344 37.9219C100.716 36.7539 100.987 35.5859 101.156 34.418L101.232 33.7324C101.232 33.4954 101.266 33.2415 101.334 32.9707C101.419 32.7337 101.512 32.556 101.613 32.4375C101.732 32.319 101.935 32.2598 102.223 32.2598C102.493 32.2598 102.756 32.3021 103.01 32.3867C103.264 32.4714 103.492 32.5983 103.695 32.7676C103.898 32.9199 104.059 33.1146 104.178 33.3516C104.313 33.5716 104.381 33.834 104.381 34.1387C104.381 34.6126 104.322 35.1712 104.203 35.8145C104.102 36.4408 103.958 37.1094 103.771 37.8203C103.585 38.5143 103.374 39.2337 103.137 39.9785C102.917 40.7233 102.68 41.4512 102.426 42.1621C102.189 42.8561 101.952 43.5163 101.715 44.1426C101.495 44.752 101.3 45.2852 101.131 45.7422L102.68 49.0176C102.984 49.6608 103.298 50.3294 103.619 51.0234C103.958 51.7174 104.262 52.3607 104.533 52.9531C104.804 53.5286 105.024 54.0195 105.193 54.4258C105.38 54.832 105.473 55.0605 105.473 55.1113ZM116.086 51.3535C116.086 51.8613 115.942 52.3861 115.654 52.9277C115.383 53.4694 115.028 53.9688 114.588 54.4258C114.148 54.8659 113.64 55.2298 113.064 55.5176C112.506 55.8053 111.947 55.9492 111.389 55.9492C110.593 55.9492 109.908 55.7969 109.332 55.4922C108.757 55.1706 108.257 54.7474 107.834 54.2227C107.411 53.681 107.064 53.0716 106.793 52.3945C106.539 51.7174 106.336 51.0234 106.184 50.3125C106.031 49.5846 105.921 48.8652 105.854 48.1543C105.803 47.4264 105.777 46.7663 105.777 46.1738C105.777 45.666 105.803 45.0651 105.854 44.3711C105.921 43.6771 106.023 42.9577 106.158 42.2129C106.311 41.4681 106.514 40.7318 106.768 40.0039C107.021 39.276 107.335 38.6243 107.707 38.0488C108.096 37.4733 108.553 37.0078 109.078 36.6523C109.62 36.2969 110.238 36.1191 110.932 36.1191C111.473 36.1191 111.956 36.2292 112.379 36.4492C112.819 36.6693 113.183 36.9655 113.471 37.3379C113.775 37.6934 114.004 38.1081 114.156 38.582C114.326 39.056 114.41 39.5469 114.41 40.0547C114.41 40.7148 114.258 41.4342 113.953 42.2129C113.648 42.9915 113.251 43.7448 112.76 44.4727C112.286 45.2005 111.744 45.8607 111.135 46.4531C110.542 47.0286 109.95 47.4688 109.357 47.7734C109.391 48.0781 109.459 48.5267 109.561 49.1191C109.662 49.6947 109.798 50.2702 109.967 50.8457C110.153 51.4212 110.365 51.9206 110.602 52.3438C110.855 52.7669 111.152 52.9785 111.49 52.9785C111.66 52.9785 111.803 52.9277 111.922 52.8262C112.057 52.7246 112.176 52.5892 112.277 52.4199C112.379 52.2507 112.464 52.0645 112.531 51.8613C112.616 51.6582 112.692 51.4635 112.76 51.2773L112.912 50.9219C112.946 50.8711 112.963 50.8372 112.963 50.8203C112.98 50.8034 112.997 50.778 113.014 50.7441C113.132 50.5241 113.242 50.321 113.344 50.1348C113.462 49.9486 113.623 49.7878 113.826 49.6523H113.801C113.868 49.5846 113.936 49.5508 114.004 49.5508C114.089 49.5339 114.165 49.5254 114.232 49.5254C114.419 49.5254 114.622 49.5846 114.842 49.7031C115.062 49.8216 115.265 49.974 115.451 50.1602C115.637 50.3294 115.79 50.5241 115.908 50.7441C116.027 50.9473 116.086 51.1504 116.086 51.3535ZM111.059 40.1562C111.059 39.987 111.05 39.8092 111.033 39.623C111.016 39.4368 110.974 39.276 110.906 39.1406C110.669 39.4284 110.458 39.7754 110.271 40.1816C110.102 40.571 109.958 40.9857 109.84 41.4258C109.721 41.849 109.62 42.2806 109.535 42.7207C109.467 43.1608 109.417 43.5671 109.383 43.9395C109.823 43.4147 110.212 42.8223 110.551 42.1621C110.889 41.485 111.059 40.8164 111.059 40.1562ZM123.729 56.7363C123.729 56.9733 123.669 57.168 123.551 57.3203C123.432 57.4727 123.28 57.5911 123.094 57.6758C122.924 57.7773 122.73 57.8451 122.51 57.8789C122.307 57.9297 122.12 57.9551 121.951 57.9551C121.359 57.9551 120.842 57.7858 120.402 57.4473C119.962 57.1087 119.581 56.6686 119.26 56.127C118.938 55.6022 118.676 55.0013 118.473 54.3242C118.27 53.6302 118.1 52.9447 117.965 52.2676C117.829 51.5736 117.728 50.9134 117.66 50.2871C117.592 49.6439 117.542 49.0938 117.508 48.6367C117.355 47.0625 117.245 45.4629 117.178 43.8379C117.127 42.2129 117.102 40.6048 117.102 39.0137C117.102 34.6634 117.254 30.3555 117.559 26.0898C117.559 26.0221 117.559 25.946 117.559 25.8613C117.576 25.7767 117.584 25.6921 117.584 25.6074C117.601 25.252 117.618 24.8457 117.635 24.3887C117.652 23.9147 117.677 23.4492 117.711 22.9922C117.745 22.5352 117.779 22.1204 117.812 21.748C117.863 21.3587 117.923 21.0879 117.99 20.9355V20.9609C118.058 20.724 118.151 20.5462 118.27 20.4277C118.388 20.3092 118.591 20.25 118.879 20.25C119.488 20.25 120.005 20.4531 120.428 20.8594C120.851 21.2656 121.062 21.7734 121.062 22.3828C121.062 22.5182 121.054 22.6536 121.037 22.7891C121.037 22.9076 121.029 23.026 121.012 23.1445C120.995 23.263 120.978 23.3815 120.961 23.5C120.961 23.6016 120.961 23.6947 120.961 23.7793C120.91 24.4395 120.868 25.0996 120.834 25.7598C120.817 26.403 120.792 27.0547 120.758 27.7148C120.673 29.1706 120.605 30.6263 120.555 32.082C120.521 33.5208 120.504 34.9766 120.504 36.4492C120.504 37.0755 120.512 37.8965 120.529 38.9121C120.546 39.9277 120.58 41.0365 120.631 42.2383C120.682 43.4232 120.749 44.6504 120.834 45.9199C120.936 47.1895 121.062 48.3997 121.215 49.5508C121.367 50.7018 121.545 51.7428 121.748 52.6738C121.968 53.6048 122.222 54.3242 122.51 54.832C122.662 54.8997 122.806 55.0098 122.941 55.1621C123.094 55.2975 123.221 55.4583 123.322 55.6445C123.441 55.8138 123.534 55.9915 123.602 56.1777C123.686 56.3809 123.729 56.5671 123.729 56.7363Z" fill="white"/>
  </svg>
  