<svg width="88" height="85" viewBox="0 0 88 85" fill="none" xmlns="http://www.w3.org/2000/svg">
  <path
    d="M43.575 0C19.4998 0 0 19.4998 0 43.575C0 62.8569 12.4733 79.1431 29.7944 84.9168C31.9731 85.298 32.7902 83.9908 32.7902 82.8469C32.7902 81.812 32.7357 78.3805 32.7357 74.7311C21.7875 76.7464 18.9551 72.0621 18.0836 69.611C17.5934 68.3583 15.4691 64.491 13.6172 63.4561C12.0921 62.639 9.91331 60.6237 13.5627 60.5692C16.9942 60.5148 19.4453 63.7284 20.2624 65.0357C24.1841 71.6264 30.448 69.7744 32.9536 68.6306C33.3349 65.7982 34.4787 63.8918 35.7315 62.8024C26.0361 61.7131 15.9049 57.9547 15.9049 41.2873C15.9049 36.5485 17.5934 32.6268 20.3713 29.5765C19.9356 28.4871 18.4104 24.0207 20.8071 18.0291C20.8071 18.0291 24.4565 16.8853 32.7902 22.4956C36.2762 21.5151 39.9801 21.0249 43.6839 21.0249C47.3878 21.0249 51.0917 21.5151 54.5777 22.4956C62.9114 16.8308 66.5608 18.0291 66.5608 18.0291C68.9574 24.0207 67.4323 28.4871 66.9965 29.5765C69.7745 32.6268 71.463 36.494 71.463 41.2873C71.463 58.0092 61.2773 61.7131 51.5819 62.8024C53.1615 64.1642 54.5232 66.7787 54.5232 70.8638C54.5232 76.692 54.4687 81.3763 54.4687 82.8469C54.4687 83.9908 55.2858 85.3525 57.4645 84.9168C66.1154 81.9972 73.6327 76.4378 78.958 69.0215C84.2833 61.6051 87.1485 52.7052 87.15 43.575C87.15 19.4998 67.6502 0 43.575 0Z"
    fill="black" />
</svg>