<svg width="84" height="85" viewBox="0 0 84 85" fill="none" xmlns="http://www.w3.org/2000/svg">
  <path
    d="M82.5801 34.841C83.0756 37.6935 83.3227 40.5837 83.3185 43.4789C83.3185 56.4091 78.6968 67.3418 70.6539 74.7419H70.6645C63.631 81.2389 53.9626 85 42.4986 85C31.2273 85 20.4176 80.5225 12.4476 72.5525C4.47752 64.5824 0 53.7727 0 42.5014C0 31.2301 4.47752 20.4204 12.4476 12.4504C20.4176 4.48032 31.2273 0.00280431 42.4986 0.00280431C53.0485 -0.120752 63.2371 3.84273 70.9302 11.0631L58.7968 23.1964C54.4108 19.0155 48.5573 16.726 42.4986 16.8216C31.4118 16.8216 21.993 24.3014 18.6356 34.3735C16.8555 39.6514 16.8555 45.3674 18.6356 50.6452H18.6516C22.0249 60.7014 31.4277 68.1812 42.5145 68.1812C48.2412 68.1812 53.1604 66.715 56.9747 64.1226H56.9587C59.1735 62.6553 61.068 60.7546 62.5279 58.535C63.9879 56.3154 64.983 53.823 65.4532 51.2083H42.4986V34.8463L82.5801 34.841Z"
    fill="black" />
</svg>